<?xml version="1.0" encoding="utf-8"?>
<!-- Generator: Adobe Illustrator 19.2.1, SVG Export Plug-In . SVG Version: 6.00 Build 0)  -->
<svg version="1.1" id="Ebene_1" xmlns="http://www.w3.org/2000/svg" xmlns:xlink="http://www.w3.org/1999/xlink" x="0px" y="0px"
	 viewBox="0 0 802 233" style="enable-background:new 0 0 802 233;" xml:space="preserve">
<style type="text/css">
	.st0{fill:#EA6F18;}
	.st1{fill:#20201E;}
	.st2{fill:#FFFFFF;}
</style>
<g>
	<path class="st0" d="M39.9,151.6c0-0.2,0.1-0.5,0.2-0.6c0.1-0.2,0.2-0.2,0.6-0.2l28.1,0.4c-0.2-2.3-0.2-4.9-0.2-7.7
		c0-3.8,0.2-7.2,0.6-10.4c0.6-5.6,1.8-10.3,3.3-14c-0.6-3.2-1.1-5.9-1.2-8.2c-0.1-0.9-0.2-1.8-0.2-2.6c0-1.3,0.1-2.4,0.4-3.2
		c-0.5,0-0.9,0-1.5,0.1c-2,0.2-3.7,0.9-5.1,1.9c-3,2.3-5.9,3-8.7,2.4c-3-0.8-5.3-3.3-7.2-7.4c-1.8-3.7-2-8.2-0.6-13.4
		c0.4-1.5,0.9-3.2,1.5-4.9l1.4-4.5l0.1-1.3c0-3.9,0.6-7,1.8-9.5c0.8-1.8,2.8-3.7,6.4-5.5c2.8-1.4,4.7-3,5.7-4.3
		c0.1-0.1,0.2-0.2,0.4-0.2c0.1-0.8,0.5-1.7,1.1-2.5c-0.2-0.7-0.2-1.3-0.2-1.9c0-0.8,0.2-1.5,0.6-2.1c0.5-0.6,1.1-1.1,2-1.3l-2.7-4.3
		c-0.5-0.6-0.8-1.2-0.9-1.9c-0.2-1.2,0.1-2.6,0.7-4.4c-0.7-0.7-1.2-1.3-1.3-1.7l-2.7-5.6c-0.7-1.5-0.8-3.1-0.2-4.6
		c0.8-1.5,2.1-2.5,4-3c2.5-0.6,5.2-2.3,7.9-4.9c1.8-1.8,3.6-2.5,5.5-2.4l2.8,1.7c0.9,1.2,2.6,4.4,4.9,9.7c3.6,1.3,5.2,3.3,5.3,5.9
		l-0.4,5c2.3-0.7,4.7-1.3,7.6-1.5c5.2-0.6,9.8-2.8,14.1-6.8l1.4-1.4l-0.1,2.1c0,0.8-0.4,2.1-0.9,3.8c-0.9,2.8-2.6,5.5-4.9,7.9
		c-0.1,0.1-0.2,0.1-0.2,0.2c0.2-0.1,0.4-0.1,0.6-0.2c4.2-1.7,7.9-1.9,11.4-0.8l2.1,0.6l-0.4,0.2l-5.9,3.4c2.4,1.5,7.1,4.6,14.5,9.4
		l8.3,6.3c7.1,5.5,10,10.6,8.5,15.3l-2.6,7.1l-0.6,2.8l-1.1,4.5c-1.8,5.7-5,9.6-9.7,11.7c0.5,0.6,1.3,2,2.5,4
		c0.2,0.6,0.6,1.3,0.8,1.9c1.1,3.2,1.4,6.6,1.2,10.3l-1.1,11.1v0.6c-1.3,13.5-2,22.4-1.9,26.7l0.6,17.5l0.1,2.1l1.1,0.2
		c1.5-0.8,3.1-1.7,4.6-2.5c7.2-4.2,14.1-9.5,20.4-15.8c8.7-8.7,15.3-18.1,19.9-28.5c5.1-11.5,7.6-24.1,7.6-37.7
		c0-2.3-0.1-4.5-0.2-6.6c-1.1-16.5-6-31.2-14.7-44.3c-3.6-5.3-7.8-10.4-12.6-15.3C144.2,10.6,122.1,1.5,96.3,1.5S48.4,10.6,30.1,29
		c-4.9,4.9-9,9.8-12.6,15.3C8.8,57.5,3.8,72.2,2.8,88.7c-0.2,2.1-0.2,4.4-0.2,6.6c0,13.6,2.5,26.1,7.6,37.7
		c4.6,10.3,11.3,19.9,19.9,28.5c3.3,3.3,6.8,6.4,10.2,9.1v-19"/>
	<path class="st0" d="M603.6,117.1c-3.6,2.1-5.6,3.6-5.9,4.4l-1.2,36.6c-0.2,10.3-0.6,25.7-1.1,46.1c0.1,1.8,0.6,3.1,1.3,4
		c0.8,0.9,2.5,1.3,5.2,0.9c4.5-0.8,7.5-2.8,8.7-6c0.5-5.2,0.9-14,1.4-26.4c0.1-3.3,0.1-5.8,0.2-7.6c0.1-3,0.7-5.2,1.9-6.8
		c0.9-0.9,1.9-1.4,3-1.3c0.6,0.2,1.2,0.6,1.7,1.4c0.5,3,0.7,5.8,0.6,8.3c-0.1,7.5-0.2,18.6-0.6,33.4c0,1.5,0.4,2.6,1.1,3.2
		c0.9,1.1,2.7,1.3,5.2,0.6c4.9-1.8,7.7-4.3,8.9-7.4c0.5-9,0.8-15.7,1.1-20c0.1-6.8,0.2-11.9,0.1-15.3c-0.2-5.8-0.9-10.7-2.4-14.3
		c-2.1-4.6-4.7-6.8-8.1-6.5c-1.8,0.1-3.7,0.7-5.6,2.1c-1.2,0.8-3,2-5.2,3.7c-0.2-0.4-0.5-0.6-0.6-0.8c-0.1-12.6,0.1-22.3,0.4-28.8
		c0-1.1-0.1-1.9-0.4-2.4l-0.7-1.1C610.7,116.4,607.7,116.3,603.6,117.1"/>
	<path class="st0" d="M544.3,123.4c0.2-1.9-0.1-3.4-0.7-4.7c-2.3-2.1-5.5-2.5-9.5-0.9c-2.5,1.4-3.9,3-4,5l-1.4,16.5
		c-0.2,2.5-0.6,3.9-0.9,4.5c-0.2,0.2-0.6,0.1-1.3-0.2c-0.1,0-0.7-0.2-1.9-0.6c-0.7-0.2-1.2-0.1-1.4,0.5c-0.5,5.1-0.4,9.1,0.4,11.9
		c0.2,0.7,0.9,1.3,2.1,1.9c1.2,0.5,1.8,1.1,1.8,2c-0.9,10.7-0.9,25.4,0,44.2c0.1,2.5,0.5,4,1.1,4.5c2.5,0.8,5.6,0.2,9.4-1.8
		c2.5-1.3,3.9-4.7,4.4-9.8l1.8-37.9l0.6-0.7c5.3-2.5,8.8-5.1,10.2-7.9c1.3-2.7,1.7-4.6,0.9-5.8c-4.6,0.7-8.2,0.9-10.4,0.8
		c-0.5-0.1-0.7-0.4-0.8-0.9L544.3,123.4"/>
	<path class="st0" d="M472.3,152.2c1.1-11.4-0.1-20.2-3.7-26.6c-8.1-15.3-25.5-20.4-52.1-15.7c-11.9,2.8-18.7,7.8-20.8,14.6
		c-1.7,5.9-1.7,9.8,0.1,12c1.3,1.5,3.4,1.3,6.3-0.6c0.2,0.1,0.4,0.6,0.6,1.4c-0.9,19.7-1.5,31.9-1.5,36.9c-0.1,0.2-0.1,0.7,0,1.2
		c-0.2,2.8-0.2,7.2,0.1,13.2c-0.2,1.9-0.5,2.8-0.7,3.1c-2.5-0.5-4.4-0.7-5.6-0.8c-0.5,0.2-0.7,0.7-0.9,1.7c-0.5,6,0.6,10.9,3,14.5
		c2.1,3.2,5.6,5,10.3,5.5c12.9,0.4,24.9-3.2,35.6-10.6C460.5,189.1,470.4,172.5,472.3,152.2L472.3,152.2z M420.5,129.9
		c12.5-3.2,23.6-3.3,33.6-0.4c2.8,0.9,5,3,6.4,5.9c4.2,11.5,1.4,23-8.2,34.2c-9.5,10.7-19.6,17.3-29.8,19.9c-1.3,0-2.1-0.1-2.3-0.4
		c-0.2-1.1-0.4-5.1-0.4-12c-0.2-9.7,0.2-24.2,1.5-43.5c0-0.4-0.6-1.3-2-2.7C419.3,130.6,419.6,130.3,420.5,129.9"/>
	<path class="st0" d="M304.3,138.1c0.5,0.1,2.4,0.5,5.7,1.1c7.1,0.5,12-0.5,14.3-2.8c0.6-1.3,0.8-2.4,0.5-3.2c-0.6-1.5-2.4-3-5.1-4
		c-7.9-1.8-14.2-1.1-18.7,2.1c-0.6,0.9-0.9,2.1-0.8,3.3C300.8,136.1,302.1,137.4,304.3,138.1"/>
	<path class="st0" d="M784.7,159.2c-1.2-4.6-1.9-7.1-2.1-7.6c-1.2-2.8-2.8-4.7-5.1-5.7c-2.5-1.2-5.1-0.8-7.9,0.9
		c-2.1,1.5-3.8,2.5-4.9,3c-0.6-2.5-1.3-4.2-2.4-5c-0.9-0.9-3-0.9-6,0c-3.7,2.1-5.8,3.6-6.2,4.5l-1.3,12.9c-0.9,11.6-1.3,26-0.7,43.2
		c0.1,1.5,0.5,2.5,0.9,3h2.7c5.3-1.3,8.9-3.2,10.7-5.7c0.1-0.4,0.6-6.6,1.4-18.9c-0.1-8.4,0.1-14.7,0.6-19c0.2-1.3,1.3-2,2.8-2.1
		c1.3,0.2,2.1,2.1,2.8,5.9c0.5,8.4,0.2,21.2-0.5,38.5c0.1,0.8,0.6,1.2,1.7,1.1c4.6-0.8,8.1-2.4,10.4-4.5c0.9-0.7,1.3-1.9,1.2-3.7
		c0.6-1.1,1.4-4.4,2.5-9.8C786.6,178.9,786.4,168.5,784.7,159.2"/>
	<path class="st0" d="M588.5,167.8c4-7.2,4.4-13.9,1.2-19.9l-1.7-1.9c-2.5-2-5.6-3-9.5-2.8c-3.4,0.1-6.6,0.9-9.6,2.6
		c-11.9,6.8-18,18.1-18,34.3c0.6,13.4,5.3,23,14,28.8c3.3,1.8,7,2.4,11,1.8c3.9-0.6,7.2-2.3,10.2-4.9c1.8-1.3,2.8-3.3,3.4-6
		c0.4-3.2,0.6-5.6,0.9-7.1c0-2.6-0.1-4-0.2-4.3h-0.7c-5.6,5.9-11.3,7.2-16.8,4.3c-3.4-2.6-5.2-6.8-5.6-12.7
		c0.1-11,2.4-18.4,6.6-21.8c1.2-0.5,1.8-0.5,2.1,0c0,0.6-0.2,2.1-0.6,4.3c-0.4,1.8-0.4,3.1,0,4.3c0.5,1.3,1.8,2.5,4.3,3.4
		C584,170.8,587,170.1,588.5,167.8"/>
	<path class="st0" d="M679.1,149.1c-1.2-2-2.1-3.3-3.1-3.7c-3.7-1.9-8.8-0.7-15.3,3.7c-0.6,0.1-0.9-0.2-0.9-0.9
		c-0.2-0.9-0.5-1.5-0.6-1.7c-0.5-1.2-1.8-1.8-4.2-1.8c-5.1,1.2-8.2,2.8-9.4,4.7c-1.2,4-2.1,11.7-2.5,22.9c-0.8,14.9-0.8,25.6,0,31.9
		c0.1,2,0.7,3.4,1.8,4.3c1.2,0.7,3.4,0.6,6.8-0.6c1.5-0.8,2.6-1.4,3.3-1.9c1.3-0.8,2.1-1.9,2.4-3.2c0.6-17.3,1.3-30.1,2.1-38.4
		c1.4-2.1,3.1-3.2,5-3.2c0.7,0.2,1.1,0.9,1.2,1.8c0,12.7-0.1,21.1-0.2,25.4c-0.1,4.4-0.2,10.7-0.6,19.1c0.7,1.2,3.1,1.3,7.1,0.6
		c4.7-1.9,7-5,6.9-9.2c0.5-6,0.8-17.5,1.3-34.5c-0.2-1.5,0-2.5,0.6-3.2c1.8-1.3,3.3-1.8,4.3-1.3c0.4,0.2,0.8,1.2,1.4,2.6
		c0.6,10.9,0.6,22.4-0.1,34.6c0.1,0.4-0.1,2.3-0.5,5.8c-0.2,2.3,0.2,4,1.2,5.3c0.8,0.6,2.8,0.4,6.2-0.6c1.9-0.9,3.3-1.7,4.3-2.1
		c1.7-0.9,2.7-2.1,3.2-3.4c1.7-16,1.8-30.4,0.2-43.4c-0.6-6.3-2.4-10.3-5.2-12.2c-3.7-2.3-8.3-1.8-13.9,1.7
		C680.2,148.9,679.2,149.3,679.1,149.1"/>
	<g>
		<path class="st0" d="M517,146.5c-0.1-1.4-0.5-2.5-1.1-3.1c-1.3-1.2-3.2-1.2-5.8-0.2c-2.3,0.7-4,1.4-5,1.8
			c-1.9,0.9-3.1,2.1-3.7,3.9l-0.9,20c-1.2,11.5-1.9,17.9-2.1,19.1c-1.2,2.7-2.8,4.3-5.1,4.5c-0.6-0.2-1.1-0.6-1.2-1.3
			c-0.7-12.2-0.1-27.3,2-45.1c-0.2-2.3-0.8-3.6-1.7-3.8c-2.6,0.1-5.6,0.8-8.9,2.4c-3,1.4-4.5,2.8-5,4.4c-3.2,20.8-4,36.2-2.3,46.4
			c1.8,6.6,4.7,10.7,8.8,12.5c5.2,1.2,10-0.8,14.1-6c0.4-0.4,0.7-0.2,0.9,0.5c0.8,3.3,1.8,5.6,3.2,6.5c1.8,0.7,3.8,0.2,6.3-1.3
			c1.7-1.3,2.8-2.4,3.7-3.1c1.4-1.4,2-2.8,1.9-4.2c1.2-15.9,1.8-24.5,1.8-26.2c-0.2-1.3-0.2-2.4,0-2.8
			C517.3,161.6,517.3,153.3,517,146.5"/>
		<path class="st0" d="M365.3,163.3c-0.2-2.5-0.9-3.9-2-4.2c-4-0.6-7.2,0.5-9.4,3.1c-0.1,0.4-1.5,5.2-4.2,14.7
			c-1.7,5.9-3.9,10.3-6.8,13.4c-1.3,0.9-2.4,1.2-3.3,0.6c-0.2-0.2-0.5-1.3-0.6-3.1c0.1-4.6,0.9-9.5,2.6-14.9
			c3-8.4,7.8-13.4,14.2-14.7c1.4-0.1,2.8-2,4.2-5.6c0.9-4.6,1.3-7.7,0.6-9.4c-0.2-0.7-0.8-1.3-1.8-1.7c-5.3-0.6-11.1,1.1-17.4,5.2
			c-7.1,4.9-12.2,11.6-15.1,20.6c-4.5,14.2-5.3,26-2.5,35.2c0.9,4,3.7,6.4,8.1,6.8c5.1,0.6,10.2-3.3,15.7-11.4l0.6-0.5
			c0.2,0.2,0.4,1.7,0.4,4.3c-0.6,11.7-0.6,21.5-0.4,29.1l0.2,0.7c0.6,0.2,2.3-0.1,5.2-1.1c6-3,9.4-7.1,9.8-12.1
			c0-0.2,0.5-6.8,1.4-19.6L365.3,163.3"/>
	</g>
	<path class="st0" d="M302.5,148.7c-0.4,0.6-0.8,3-1.3,7c-0.9,17-1.5,31.8-1.4,44.5c0.1,1.7,0.8,3,2.4,4c0.8,0.6,2.1,1.2,4,1.9
		c1.2,0.4,3,0.9,5.6,1.8c2.1,0.5,3.9,0,5.2-1.2c0.5-0.9,0.7-2,0.6-2.8c0.5-26.6,0.8-46.4,0.9-59.5c-0.5-1.1-1.8-1.7-4-1.7
		C309.7,143.3,305.7,145.3,302.5,148.7"/>
	<path class="st0" d="M262.5,104.9c-0.8,0.4-1.3,0.6-1.8,0.5c-2.8,0.6-5,1.2-6.4,1.7c-13.2,3.6-23.2,8.5-30.4,14.9
		c-2.1,1.4-3.4,3.7-4,6.4c-0.1,0.5-0.4,3.1-0.9,8.1c0,2.1,0.5,3.3,1.4,3.9c1.8,0.5,4-0.1,7.1-1.4c0.5,0.1,0.6,0.5,0.6,0.9
		c0.1,4.9,0,9.7-0.5,14.8c-0.2,2.8-0.5,16.2-0.7,40.2l-0.5,0.6c-2.5-0.2-4.2-0.6-5.3-0.6c-0.5,0.1-0.8,0.6-0.9,1.4
		c0.1,4.2,0.6,8.2,1.3,12.1c0.5,2.3,2.5,4,5.9,5.5c8.7,2.5,18.1,2.6,28.5,0.6c10.8-2.1,20-6.2,27.6-12.1
		c9.2-7.1,13.5-16.4,12.7-27.4c0-6-2.7-11.9-8.1-17.3c-6.9-5.7-11.9-10-14.8-12.8c-0.2-0.5-0.2-0.8,0-0.9c12.2-8.2,20-16,23.5-23.4
		c2.1-4.3,2.1-7.8-0.2-10.7c-1.1-1.5-2.8-3-5.6-4.2C284.6,102.8,275.2,102.7,262.5,104.9L262.5,104.9z M247.7,136.5
		c-1.4-1.3-2.4-2.4-2.8-3.3c0-0.1,0.6-0.6,1.7-1.4c8.8-3.3,17.2-5.6,25-6.5c1.3,0,2.1,0.4,2.4,1.2c0.2,0.8-0.6,2.8-2.5,6
		c-4.5,5.7-10.4,11.4-18.1,17.1c-0.6,0.9-0.8,2-0.6,3.1c0.2,0.6,1.2,1.8,2.7,3.2c7.8,6.6,13.8,12.1,17.5,16.4
		c3.6,3.9,4.5,7.4,3,10.4c-1.3,2.6-4.4,5.5-9.4,8.3c-6.2,3.2-12.6,4.9-19.3,5c-0.6-0.2-0.9-0.8-1.1-1.8c0.1-1.2,0-2-0.1-2.5
		C245.9,172.9,246.5,154.5,247.7,136.5"/>
	<path class="st0" d="M738.7,152.2c-1.8-3.7-4.2-6.5-7.5-8.7c-1.5-1.2-4.4-1.2-8.7,0c-7.6,2.3-12.6,4.9-15.3,7.6
		c-0.8,2.6-0.2,5.9,1.8,9.8c2,2.4,3.3,3.6,4.2,3.4c1.7-0.2,3.6-0.9,5.6-2.1c1.2-0.6,2.8-1.5,5.2-2.8l1.1-0.1
		c0.6,0.2,0.8,0.8,0.8,1.4c0.4,4,0.5,6.8,0.2,8.3l-0.4,2.5c-3.2-2.4-5.6-3.8-7.2-4.4c-2.7-0.6-5.1,0.2-7.1,2.7
		c-4.5,5.1-6.4,12.8-5.5,23c1.3,7.5,3.3,12.3,6,14.8c3,2.5,6.4,2.8,10.2,1.1c1.3-0.4,3-1.8,4.9-4c0.6,0.1,2.8,1.1,7.1,3
		c2.3,0.9,3.8,1.3,4.7,0.9c1.8-0.6,2.8-2.1,3.1-4.5c0.1-3,0.2-5,0.5-6.3c0.4-14.8,0.2-24.9-0.2-30.4
		C741.9,161.4,740.8,156.1,738.7,152.2L738.7,152.2z M724,181.8c0.8,0.6,1.4,1.3,1.8,2.1c1.2,4,0.6,7.1-1.4,9.1
		c-0.9,0.6-1.8,0.8-2.5,0.5c-0.6-0.1-1.3-0.8-2-1.9c-0.9-3.6-0.6-6.5,1.1-9C722,181.6,723.1,181.4,724,181.8"/>
	<path class="st0" d="M793.5,201.7v-2h1.5c0.9,0,1.3,0.4,1.3,0.9s-0.2,1.1-1.4,1.2h-1.4V201.7z M794.5,202.9c0.5,0,0.8,0,1.2,0.4
		s0.4,1.1,0.5,1.7c0,0.5,0.2,0.9,0.2,1.4h1.5c-0.2-0.7-0.4-1.5-0.5-2.3c-0.1-0.8-0.2-1.3-1.3-1.5l0,0c1.1-0.2,1.7-0.9,1.7-1.9
		c0-1.8-1.5-2.3-3-2.3h-2.6v7.9h1.2v-3.4H794.5L794.5,202.9z M794.9,208c-3.1,0-5.6-2.5-5.6-5.6c0-3.1,2.5-5.6,5.6-5.6
		s5.6,2.5,5.6,5.6S798,208,794.9,208L794.9,208z M794.9,209.1c3.8,0,6.8-3,6.8-6.8c0-3.7-3-6.8-6.8-6.8c-3.8,0-6.8,3-6.8,6.8
		S791.1,209.1,794.9,209.1"/>
	<path class="st1" d="M79.7,37.9c-0.8,0.6-0.9,1.5-0.6,2.6c0.1-0.5,0.5-0.9,1.2-1.5l2.3-0.9C81.3,37.3,80.5,37.3,79.7,37.9"/>
	<path class="st1" d="M163.4,189.3c-0.4,0-0.6,0.2-0.6,0.6s0.2,0.6,0.6,0.6s0.6-0.2,0.6-0.6S163.7,189.3,163.4,189.3"/>
	<path class="st1" d="M150.3,184.7c0.5,0,0.7-0.2,0.7-0.6c0-0.4-0.2-0.6-0.7-0.6c-0.4,0-0.6,0.2-0.6,0.6
		C149.7,184.5,150,184.7,150.3,184.7"/>
	<path class="st1" d="M50.5,201c-0.4,0-0.6,0.2-0.6,0.7c0,0.4,0.2,0.6,0.6,0.6c0.5,0,0.7-0.2,0.7-0.6C51.2,201.1,51,201,50.5,201"/>
	<path class="st1" d="M77.9,48.6c-0.2-0.1-0.5-0.9-0.5-2.6c0-0.9-0.2-1.8-0.6-2l-0.7-0.2l0.5,2.6C76.3,47.9,76.8,48.6,77.9,48.6"/>
	<path class="st1" d="M74.7,47.8c-0.2,0.2-0.6,0-1.1-0.6c-0.6-0.5-0.8-0.9-0.6-1.3c0.1-0.2,0.5-0.1,1.1,0.6
		C74.8,47,74.9,47.4,74.7,47.8L74.7,47.8z M72.1,45.3c-1.2,0.6-1.3,1.9-0.6,3.7l0.9,1.2l3.1-2.3L75.3,47
		C74.4,45.3,73.4,44.8,72.1,45.3"/>
	<path class="st1" d="M75.6,51.9l2,0.7c0.4,0.2,0.9,0.9,2,2.1c0.9,0.9,2.1,1.1,3.3,0.6c1.5-0.6,2.1-2.5,1.4-5.6l0.2-2.3
		C81.9,49.7,78.8,51.2,75.6,51.9"/>
	<path class="st1" d="M35.3,190.4c0.4,0,0.6-0.2,0.6-0.6s-0.2-0.6-0.6-0.6s-0.6,0.2-0.6,0.6S35,190.4,35.3,190.4"/>
	<path class="st1" d="M74,43.6c-0.9-0.9-2-1.1-2.8-0.5c-0.8,0.6-1.2,1.4-0.9,2.5c0.1-0.5,0.6-0.9,1.3-1.4L74,43.6"/>
	<path class="st1" d="M104.3,67.9c-1.1,0-1.7-0.6-1.7-1.5c0-1.1,0.6-1.7,1.7-1.7c0.9,0,1.5,0.6,1.5,1.7
		C105.9,67.3,105.4,67.9,104.3,67.9L104.3,67.9z M104.3,63.1c-2.1,0-3.3,1.1-3.3,3.3c0,2.1,1.1,3.2,3.3,3.2c2.1,0,3.2-1.1,3.2-3.2
		C107.5,64.1,106.5,63.1,104.3,63.1"/>
	<path class="st1" d="M82.3,40.5c0.2-0.2,0.6,0,1.2,0.6c0.6,0.6,0.7,0.9,0.6,1.3c-0.2,0.2-0.6,0-1.2-0.6
		C82.2,41.1,82,40.8,82.3,40.5L82.3,40.5z M80.9,40c-1.1,0.9-1.1,2.1,0,3.7l0.6,0.6l3.4-1.8l-0.6-1.3C83.1,39.7,82,39.2,80.9,40"/>
	<path class="st1" d="M158.2,197.5c-0.4,0-0.6,0.2-0.6,0.6s0.2,0.6,0.6,0.6s0.6-0.2,0.6-0.6S158.5,197.5,158.2,197.5"/>
	<path class="st1" d="M74.9,80.1c-1.1,0-1.7-0.6-1.7-1.5c0-1.1,0.6-1.7,1.7-1.7c0.9,0,1.5,0.6,1.5,1.7
		C76.5,79.5,75.9,80.1,74.9,80.1L74.9,80.1z M74.9,75.4c-2.1,0-3.3,1.1-3.3,3.3c0,2.1,1.1,3.2,3.3,3.2c2.1,0,3.2-1.1,3.2-3.2
		C78.1,76.5,77.1,75.4,74.9,75.4"/>
	<path class="st1" d="M96.3,154.8c0-0.1,0-0.4,0-0.5l0,0l0,0l0,0l0,0l0,0c-0.1-0.1-0.2-0.2-0.5-0.2l0,0h-0.1c0,0,0,0-0.1,0l0,0l0,0
		l0,0c0,0-0.1,0-0.1,0.1v0.1l0,0v0.1l0,0v0.7c0,0.2,0,0.6,0,0.8v0.6c0,0.1,0.2,0.4,0.4,0.4l0,0h0.1l0,0c0.1,0,0.4,0,0.5-0.1l0.1-0.1
		l0,0c0.1-0.2,0.1-0.7,0.1-0.9C96.3,155.4,96.3,155.2,96.3,154.8L96.3,154.8z M93.9,153.3L93.9,153.3L93.9,153.3
		c-0.1-0.4-0.4-0.5-0.7-0.5l0,0h-0.1l0,0l0,0l0,0l-0.1,0.1v0.1l0,0v0.1l0,0v0.4c0,0.2,0,0.6,0.1,0.8l0,0l0,0l0,0c0,0,0,0.1,0.1,0.1
		l0,0l0,0l0,0l0,0c0.1,0,0.4,0.1,0.5,0h0.1l0,0l0,0l0,0c0.2-0.1,0.2-0.2,0.2-0.6v-0.2l0,0v-0.4H93.9z M98.6,152.2L98.6,152.2
		L98.6,152.2C98.6,152.2,98.5,152.2,98.6,152.2c-0.1-0.1-0.1-0.2-0.2-0.2l0,0h-0.1c-0.4-0.1-0.5,0.1-0.6,0.2l0,0l0,0l0,0v0.1l0,0
		v0.2c0,0.1,0,0.4,0,0.6c0,0.2,0,0.5,0,0.7v0.6l0,0v0.1l0,0l0,0l0,0l0,0l0,0c0,0,0,0,0,0.1c0,0,0,0,0.1,0l0,0h0.1l0,0
		c0.1,0,0.4,0,0.5,0l0,0l0,0c0-0.1,0.1-0.1,0.1-0.2l0,0l0,0v-0.1l0,0V154c0-0.2,0-0.5,0-0.7v-0.4l0,0v-0.2
		C98.6,152.7,98.6,152.5,98.6,152.2C98.6,152.3,98.6,152.3,98.6,152.2L98.6,152.2z M96.3,150.8c0,0,0-0.1-0.1-0.1l0,0
		c-0.1-0.1-0.2-0.1-0.6-0.1l0,0h-0.1l0,0l0,0l0,0l0,0c0,0,0,0-0.1,0.1l0,0l0,0l0,0l0,0l0,0l0,0l0,0v0.1l0,0v0.6c0,0.2,0,0.5,0,0.7
		c0,0.5-0.1,0.7,0.1,0.9l0.1,0.1c0.1,0.1,0.5,0,0.5,0l0,0l0,0c0,0,0-0.1,0.1-0.1c0.1-0.2,0.1-0.5,0.1-0.8
		C96.3,151.8,96.3,151.3,96.3,150.8L96.3,150.8L96.3,150.8L96.3,150.8z M92.8,151.9c0,0.1,0.1,0.1,0.1,0.2l0,0l0,0l0,0l0,0l0,0l0,0
		h0.4c0.1,0,0.4-0.2,0.4-0.4v-0.1l0,0v-1.2c0-0.1,0-0.5,0-0.7v-0.2c-0.1-0.2-0.2-0.4-0.6-0.4h-0.1l0,0h-0.1l0,0l0,0l0,0l0,0l0,0
		c0,0,0,0-0.1,0v0.1l0,0l0,0l0,0l0,0l0,0v0.1l0,0c0,0.2,0,0.6,0,0.8L92.8,151.9L92.8,151.9L92.8,151.9L92.8,151.9z M98.4,148.4H98
		l0,0h-0.1l0,0l0,0l0,0c0,0-0.1,0-0.1,0.1v0.1l0,0v0.1l0,0v0.6v0.2c0,0.1,0,0.4,0,0.5l0,0v0.4c0,0.1,0,0.1,0,0.2l0,0
		c0,0.1,0,0.1,0,0.2l0,0c0,0,0,0,0,0.1l0,0l0,0l0,0l0,0l0,0l0,0l0,0l0,0l0,0c0,0,0.2,0,0.4,0c0.2-0.1,0.4-0.2,0.5-0.5v-0.1l0,0V150
		c0-0.1,0-0.4,0-0.5l0,0v-0.4c0-0.1,0-0.2,0-0.2C98.8,148.7,98.6,148.4,98.4,148.4L98.4,148.4z M96.5,147.2L96.5,147.2L96.5,147.2
		L96.5,147.2L96.5,147.2c-0.1-0.1-0.1-0.1-0.1-0.1l0,0l0,0c0,0,0-0.1-0.1-0.1l0,0l0,0h-0.1l0,0l0,0l0,0h-0.4l0,0h-0.1l0,0l0,0
		l-0.1,0.1l0,0l0,0l0,0v0.1l0,0v0.1l0,0v0.2l0,0v0.2l0,0c0,0.1,0,0.4,0,0.5v0.2l0,0v0.4l0,0c0,0.1,0,0.4,0,0.5c0,0,0,0,0,0.1l0,0
		l0,0l0,0c0,0,0.1,0.1,0.2,0.1l0,0h0.1l0,0c0.1,0,0.4,0,0.4,0l0,0l0,0l0,0l0,0l0.1-0.1c0,0,0,0,0.1,0l0,0l0,0l0,0l0,0v-0.1l0,0v-0.2
		l0,0v-0.4l0,0v-0.4l0,0v-0.4l0,0v-0.4l0,0v-0.4l0,0L96.5,147.2L96.5,147.2L96.5,147.2z M93.5,145.6L93.5,145.6h-0.1c0,0,0,0-0.1,0
		l0,0l0,0l0,0l-0.1,0.1v0.1l0,0v0.1l0,0c0,0.1,0,0.2,0,0.4v0.2l0,0c0,0.1,0,0.4,0,0.5v0.2l0,0v0.4c0,0.1,0,0.4,0,0.5l0,0v0.1l0,0
		v0.1l0,0l0,0l0.1,0.1l0,0l0,0l0,0l0,0c0,0,0.2,0,0.4,0c0.2-0.1,0.4-0.2,0.5-0.4v-0.2l0,0v-0.2c0-0.1,0-0.4,0-0.5l0,0v-0.4l0,0v-0.4
		l0,0c0-0.1,0-0.6,0-0.6C94,145.7,93.8,145.7,93.5,145.6L93.5,145.6z M98.8,144.9h-0.4c0,0.1-0.1,0-0.1,0l0,0l0,0l0,0
		c0,0-0.1,0-0.1,0.1l0,0l0,0l0,0l0,0v0.1l0,0c0,0.1,0,0.2,0,0.4l0,0v0.2l0,0v0.2l0,0v0.2l0,0v0.4l0,0v0.4l0,0c0,0.1,0,0.2,0,0.4v0.1
		c0,0.1,0.1,0.1,0.1,0.2l0,0l0,0l0,0l0,0l0,0l0,0c0,0,0.2,0,0.4,0l0,0h0.1l0,0l0,0c0.1,0,0.1-0.1,0.2-0.1l0,0l0,0l0,0l0,0v-0.1l0,0
		v-0.5l0,0v-0.4l0,0v-0.4l0,0v-0.2l0,0v-0.2l0,0v-0.2C99.2,145.2,99,144.9,98.8,144.9L98.8,144.9z M96.3,143.2L96.3,143.2
		L96.3,143.2c-0.1,0.1-0.1,0-0.2,0.1c0,0,0,0,0,0.1l0,0c0,0,0,0,0,0.1c0,0,0,0-0.1,0l0,0l0,0v0.1l0,0v0.1l0,0v0.2l0,0v0.2l0,0v0.2
		l0,0v0.2l0,0v0.2l0,0v0.2l0,0v0.2c0,0.2,0,0.5,0,0.6c0,0,0,0,0,0.1l0,0l0,0c0.1,0,0.1,0.1,0.2,0.1c0.1,0,0.4,0.1,0.5,0h0.1l0,0h0.1
		l0.1-0.1l0,0v-0.1l0,0c0-0.1,0-0.1,0-0.2c0.1-0.2,0-0.5,0.1-0.7v-0.2l0,0v-0.4l0,0v-0.2l0,0V144c0-0.2,0.1-0.5,0-0.6
		C96.7,143.3,96.5,143.2,96.3,143.2L96.3,143.2z M94.4,142.1L94.4,142.1L94.4,142.1C94.3,142.1,94.3,142.1,94.4,142.1l-0.1-0.1l0,0
		l0,0l0,0c0,0-0.2,0-0.4,0l0,0h-0.1l0,0h-0.1l0,0c0,0,0,0-0.1,0c0,0,0,0,0,0.1l0,0v0.1l0,0c0,0.2,0,0.5-0.1,0.7l0,0v0.2l0,0v0.2l0,0
		v0.2l0,0v0.2l0,0v0.2l0,0v0.2l0,0c0,0.1,0,0.2,0,0.2v0.1l0,0v0.1l0,0l0,0l0.1,0.1l0,0l0,0l0,0l0,0h0.1l0,0c0.2,0.1,0.5-0.1,0.6-0.1
		l0,0c0,0,0,0,0.1,0c0-0.1,0-0.1,0.1-0.2c0-0.1,0-0.2,0-0.5l0,0v-0.2l0,0v-0.2l0,0v-0.2l0,0v-0.1l0,0v-0.2c0.1-0.2,0.1-0.5,0-0.7
		C94.5,142.4,94.5,142.3,94.4,142.1C94.4,142.3,94.4,142.3,94.4,142.1L94.4,142.1z M99.5,141.6L99.5,141.6L99.5,141.6v-0.1
		c0,0,0,0-0.1,0l0,0c0,0,0,0-0.1,0c0,0,0,0,0-0.1l-0.4-0.1l0,0h-0.1l0,0c-0.2,0-0.4,0.2-0.4,0.5c0,0.1,0,0.2,0,0.4
		c-0.1,0.2,0,0.6-0.1,0.8v0.2c0,0.1-0.1,0.5,0,0.6l0,0v0.1l0,0l0,0l0,0l0,0l0,0c0,0,0,0,0,0.1h0.1l0,0h0.1l0,0c0.1,0.1,0.5,0,0.6,0
		l0.1-0.1l0,0v-0.1l0,0v-0.1l0,0c0-0.1,0-0.2,0-0.4l0,0V143c0.1-0.4,0-0.7,0.1-1.1v-0.2l0,0C99.5,141.8,99.5,141.7,99.5,141.6
		L99.5,141.6L99.5,141.6z M96.7,139.7L96.7,139.7h-0.1l0,0c-0.1,0-0.1,0.1-0.1,0.1s0,0-0.1,0l0,0l0,0v0.1l0,0v0.1l0,0v0.1l0,0v0.1
		l0,0v0.1c-0.1,0.2-0.1,0.6-0.1,0.9v0.1l0,0v0.1l0,0v0.1l0,0c0,0.1,0,0.1,0,0.2c0,0.1,0.1,0.2,0.2,0.4c0.1,0,0.1,0,0.2,0.1
		c0.1,0,0.2,0,0.4,0c0,0,0.1,0,0.1-0.1s0.1-0.1,0.1-0.2l0,0l0,0c0-0.2,0.1-0.5,0.1-0.7c0-0.1,0.1-0.5,0.1-0.6v-0.1l0,0
		c0-0.1,0-0.2,0-0.2C97.6,140,97.2,139.7,96.7,139.7L96.7,139.7z M95.1,138.8L95.1,138.8C95,138.7,95,138.7,95.1,138.8
		c-0.2-0.2-0.2-0.4-0.7-0.4l0,0h-0.1l0,0l0,0c-0.1,0.1-0.1,0.1-0.2,0.2v0.1l0,0v0.1l0,0v0.1l0,0v0.1c-0.1,0.5-0.1,0.9-0.2,1.3v0.4
		c0,0.1,0.2,0.4,0.4,0.4l0,0h0.1l0,0c0.1,0,0.4,0,0.5-0.1c0,0,0-0.1,0.1-0.1l0,0c0.1-0.1,0.1-0.5,0.2-0.7v-0.1
		c0.1-0.4,0.1-0.7,0.2-1.1C95.1,139.2,95.1,138.8,95.1,138.8L95.1,138.8L95.1,138.8z M99.4,137.6L99.4,137.6h-0.1l0,0h-0.1l-0.1,0.1
		l0,0v0.1l0,0v0.1l0,0v0.1l0,0v0.1l0,0v0.1l0,0v0.1c0,0.1,0,0.4-0.1,0.5v0.1l0,0v0.1l0,0v0.1l0,0v0.1c-0.1,0.4,0.1,0.7,0.4,0.8
		c0.2,0.1,0.6-0.1,0.6-0.2c0.1-0.1,0.1-0.5,0.1-0.7v-0.1c0-0.1,0.1-0.4,0.1-0.6v-0.1l0,0v0.1l0,0v-0.1l0,0v-0.1l0,0v-0.1
		C99.9,137.9,99.8,137.6,99.4,137.6L99.4,137.6z M97.6,138.8L97.6,138.8c0.1-0.1,0.1-0.5,0.2-0.7V138c0.1-0.2,0.1-0.6,0.2-0.8
		c0-0.1,0-0.1,0-0.2c0-0.1,0.1-0.4,0-0.5c-0.1-0.2-0.2-0.4-0.6-0.4l0,0h-0.1c0,0,0,0-0.1,0l0,0l0,0l-0.1,0.1l0,0v0.1l0,0
		c0,0.1,0,0.2-0.1,0.5c-0.1,0.4-0.1,0.8-0.2,1.3v0.1c-0.1,0.2,0.1,0.6,0.2,0.7l0,0h0.1l0,0h0.1l0,0c0.1,0,0.1,0,0.2,0l0,0h0.1
		C97.5,138.9,97.5,138.9,97.6,138.8L97.6,138.8C97.6,138.9,97.6,138.8,97.6,138.8L97.6,138.8z M95.2,137.8L95.2,137.8
		C95.2,137.8,95.3,137.8,95.2,137.8c0.1-0.1,0.1-0.1,0.1-0.1l0,0l0,0v-0.1l0,0v-0.1l0,0v-0.1l0,0v-0.1l0,0V137l0,0
		c0-0.1,0-0.1,0-0.2l0,0v-0.1c0.1-0.2,0.1-0.5,0.2-0.7c0-0.1,0-0.1,0-0.2s0.1-0.4,0.1-0.5c-0.1-0.2-0.2-0.4-0.4-0.4H95l0,0h-0.1l0,0
		l0,0l-0.1,0.1l0,0c0,0.1-0.1,0.2-0.1,0.4v0.1c-0.1,0.4-0.2,0.8-0.4,1.2v0.1l0,0v0.1c0,0.1-0.1,0.2,0,0.4v0.1l0,0l0,0l0,0
		c0,0.1,0.1,0.1,0.2,0.1C94.7,137.9,95.1,137.9,95.2,137.8L95.2,137.8L95.2,137.8L95.2,137.8L95.2,137.8z M100.7,134.6
		C100.7,134.4,100.7,134.4,100.7,134.6L100.7,134.6v-0.1c0,0,0,0-0.1,0c-0.1-0.1-0.2-0.1-0.6-0.1l0,0h-0.1l0,0l0,0l0,0
		c0,0-0.1,0-0.1,0.1l0,0l0,0l0,0l0,0l0,0l0,0v0.1l0,0v0.1l0,0v0.1c-0.1,0.2-0.1,0.6-0.2,0.8c0,0.1,0,0.1,0,0.2l0,0v0.1l0,0v0.1l0,0
		v0.1c0,0-0.1,0.2,0,0.4c0,0.1,0.1,0.2,0.2,0.4c0,0,0.1,0,0.1,0.1c0.2,0,0.2,0.1,0.5,0h0.1l0,0c0.1,0,0.1,0,0.1-0.1
		c0,0,0.1,0,0.1-0.1l0,0l0,0v-0.1c0-0.1,0.1-0.4,0.1-0.5v-0.1c0-0.2,0.1-0.5,0.1-0.6v-0.1l0,0c0-0.1,0-0.1,0-0.2
		C100.7,135,100.8,134.7,100.7,134.6L100.7,134.6L100.7,134.6z M98.2,135.5C98.2,135.4,98.2,135.5,98.2,135.5L98.2,135.5l0.1-0.1
		c0,0,0-0.1,0.1-0.1l0,0l0,0l0,0c0-0.1,0-0.1,0-0.2s0.1-0.2,0.1-0.4v-0.1c0.1-0.4,0.2-0.7,0.4-1.1v-0.1l0,0V133l0,0l0,0l0,0v-0.1
		c-0.1-0.1-0.4-0.2-0.6-0.2l0,0c-0.1,0-0.1,0-0.1,0c-0.1,0-0.1,0.1-0.2,0.1l0,0l0,0c0,0.1-0.1,0.1-0.1,0.2v0.1l0,0v0.1l0,0v0.1l0,0
		v0.1l0,0v0.1l0,0v0.1l0,0v0.1c-0.1,0.2-0.1,0.5-0.2,0.7c0,0.1,0,0.1,0,0.2s-0.1,0.2,0,0.4l0,0v0.1l0,0v0.1c0,0,0,0,0.1,0l0,0
		c0,0,0,0,0.1,0l0,0c0,0,0,0,0.1,0l0,0C97.8,135.5,97.9,135.5,98.2,135.5L98.2,135.5z M95.2,134L95.2,134
		C95.2,134.1,95.3,134.1,95.2,134L95.2,134l0.1,0.1l0,0l0.1,0.1c0.1,0,0.1,0,0.1,0.1c0.1,0,0.4,0,0.5,0l0,0l0,0l0,0
		c0,0,0.1,0,0.1-0.1l0,0l0,0l0,0l0,0v-0.1l0,0V134l0,0v-0.1l0,0l0.1-0.4l0,0v-0.1l0,0c0-0.1,0-0.1,0-0.2l0,0V133l0,0v-0.1l0,0v-0.2
		l0,0l0,0l0,0v-0.1l0,0v-0.1l0,0v-0.1l0,0v-0.1l0,0v-0.1l0,0c0-0.1,0-0.4,0-0.4l0,0v-0.1l0,0c-0.1-0.2-0.2-0.2-0.6-0.2l0,0h-0.1l0,0
		l0,0l-0.1,0.1l0,0l0,0l0,0l0,0l0,0v0.1l0,0v0.1l0,0v0.1l0,0v0.1l0,0v0.1l0,0v0.1l0,0v0.1l0,0v0.1l0,0v0.1l0,0c0,0.1,0,0.1,0,0.2
		l0,0v0.1l0,0v0.1l0,0c0,0.1,0,0.2-0.1,0.4C95.2,133.5,95.2,133.7,95.2,134L95.2,134L95.2,134L95.2,134z M101.5,131L101.5,131
		L101.5,131c-0.1-0.4-0.2-0.4-0.7-0.4l0,0h-0.1l0,0l0,0l0,0c0,0-0.1,0-0.1,0.1l0,0l0,0c0,0.2-0.1,0.4-0.1,0.6v0.1
		c-0.1,0.4-0.2,0.8-0.4,1.3v0.2l0,0v0.1l0,0l0,0c0,0,0,0,0.1,0l0,0c0,0,0,0,0.1,0c0,0,0,0,0,0.1l0,0l0,0h0.1l0,0
		c0.1,0,0.4,0,0.4-0.1c0.1,0,0.1,0,0.1-0.1c0,0,0.1,0,0.1-0.1l0,0l0,0v-0.1l0,0v-0.1l0,0v-0.1l0,0v-0.1l0,0v0.2l0,0v-0.1
		c0.1-0.1,0.1-0.4,0.1-0.6c0-0.1,0-0.1,0-0.2l0,0c0-0.1,0-0.1,0-0.2l0,0l0,0l0,0c0-0.1,0-0.1,0-0.2l0,0
		C101.5,131.2,101.5,131.1,101.5,131L101.5,131L101.5,131z M99.2,131.9c0,0,0.1,0,0.1-0.1c0.1-0.1,0.1-0.2,0.1-0.4l0,0v-0.1l0,0
		v-0.1l0,0v-0.1l0,0V131l0,0c0-0.1,0-0.2,0.1-0.4l0,0v-0.1l0,0v-0.1l0,0v-0.1l0,0v-0.1l0,0v-0.1l0,0v-0.1l0,0v0.4l0,0v-0.1l0,0v-0.1
		l0,0v-0.1l0,0v-0.1l0,0v-0.1l0,0c0-0.1,0-0.2,0-0.4l0,0c-0.1-0.2-0.2-0.4-0.6-0.4l0,0c-0.1,0-0.1,0-0.1,0l0,0c-0.1,0-0.1,0-0.1,0.1
		l-0.1,0.1c0,0.1-0.1,0.2-0.1,0.4l0,0v0.1l0,0v0.1l0,0v0.1l0,0v0.1l0,0c0,0.1,0,0.2-0.1,0.4l0,0v0.1l0,0v0.1l0,0
		c0,0.1,0,0.2-0.1,0.4l0,0v0.1l0,0v0.1l0,0c0,0.1,0,0.1,0,0.2l0,0v0.1l0,0v0.4c0,0.1,0.1,0.4,0.4,0.4
		C98.8,132.1,99.1,132.1,99.2,131.9L99.2,131.9L99.2,131.9z M96.3,130.6C96.3,130.6,96.4,130.6,96.3,130.6L96.3,130.6
		C96.4,130.8,96.4,130.8,96.3,130.6c0.1,0.1,0.1,0.2,0.2,0.2c0.1,0,0.4,0.1,0.5,0l0,0h0.1l0,0l0,0l0,0l0.1-0.1l0,0l0,0v-0.1l0,0
		v-0.1l0,0v-0.1l0,0v-0.1l0,0l0,0l0,0l0,0l0,0v-0.1l0,0v-0.1c0.1-0.5,0.4-0.8,0.5-1.3v-0.4l0,0l0,0l0,0v-0.1l0,0l0,0l0,0
		c0,0,0,0,0-0.1c0,0-0.1,0-0.2-0.1l0,0h-0.4l0,0H97l0,0l0,0l0,0l-0.1,0.1v0.1l0,0l0,0l0,0v0.1l0,0v0.1l0,0l0,0l0,0v0.1l0,0l0,0l0,0
		c0,0.1,0,0.1,0,0.2l0,0l0,0l0,0v0.1l0,0v0.1l0,0l0,0l0,0v0.1l0,0v0.1l0,0v0.1l0,0v0.1l0,0v0.1l0,0l0,0l0,0c0,0.1,0,0.1,0,0.2
		c0,0.1-0.1,0.2-0.1,0.4l0,0C96.3,130.5,96.3,130.5,96.3,130.6L96.3,130.6z M102,127.2c0,0-0.1,0-0.2,0l0,0h-0.1l-0.1,0.1l0,0v0.1
		l0,0l0,0l0,0v0.1l0,0v0.1l0,0v0.1l0,0v0.1l0,0l0,0l0,0v0.1l0,0v0.1c-0.1,0.2-0.2,0.6-0.4,0.8c0,0.1,0,0.1,0,0.2l0,0v0.1l0,0
		c-0.1,0.2,0.1,0.5,0.2,0.6l0,0l0,0h0.1l0,0c0.1,0,0.4,0,0.5,0c0,0,0,0,0.1,0l0,0l0.1-0.1l0,0l0,0l0,0l0,0v-0.1l0,0v-0.1l0,0v-0.1
		l0,0v-0.1l0,0v-0.1c0.1-0.4,0.2-0.7,0.4-1.1V128c0-0.1,0.1-0.4,0.1-0.5v-0.1l0,0C102.6,127.3,102.3,127.2,102,127.2L102,127.2z
		 M100.4,128.5C100.4,128.4,100.4,128.4,100.4,128.5L100.4,128.5c0.1-0.1,0.1-0.1,0.1-0.1v-0.1l0,0l0,0l0,0v-0.1l0,0V128l0,0l0,0
		l0,0v-0.1l0,0v-0.1l0,0l0,0l0,0v-0.1l0,0l0,0l0,0v-0.1l0,0l0,0l0,0v-0.1l0,0l0,0l0,0v-0.1l0,0l0,0l0,0v-0.1l0,0l0,0l0,0v-0.1l0,0
		V127l0,0l0,0l0,0v-0.1l0,0v-0.1c0-0.4-0.2-0.5-0.4-0.6h-0.4l0,0h-0.1l0,0l0,0l-0.1,0.1l0,0c-0.2,0.6-0.5,1.2-0.7,1.9
		c-0.1,0.2,0.1,0.5,0.1,0.6l0,0l0,0l0,0l0,0h0.1l0,0h0.1l0,0C100.1,128.6,100.3,128.5,100.4,128.5L100.4,128.5L100.4,128.5z
		 M97.9,127.6c0.1,0,0.4,0,0.5-0.1l0.1-0.1l0,0c0-0.1,0-0.1,0.1-0.2l0,0l0,0l0,0V127l0,0v-0.1l0,0v-0.1l0,0v-0.1l0,0v-0.1l0,0v-0.1
		l0,0v-0.1l0,0v-0.1l0,0V126l0,0v-0.1l0,0v-0.1l0,0v-0.1l0,0l0,0l0,0v-0.1l0,0v-0.1l0,0v-0.1l0,0l0,0l0,0c0,0,0,0,0-0.1l0,0
		c0-0.1,0-0.1,0-0.1l0,0c0-0.1,0-0.2,0-0.2v-0.1l0,0l0,0l0,0l0,0l0,0c0,0,0,0-0.1-0.1l0,0l0,0c-0.1-0.1-0.2,0-0.5,0l0,0h-0.1l0,0
		l0,0l0,0c0,0-0.1,0-0.1,0.1c0,0,0,0,0,0.1l0,0v0.1l0,0v0.1l0,0c0,0,0,0,0,0.1l0,0l0,0l0,0v0.1l0,0v0.1l0,0l0,0l0,0v0.1l0,0v0.1l0,0
		v0.1l0,0v0.1l0,0l0,0l0,0v0.1l0,0v0.1l0,0v0.1l0,0v0.1l0,0v0.1l0,0v0.1l0,0l0,0l0,0v0.1l0,0v0.1l0,0v0.1
		C97.5,127.2,97.7,127.4,97.9,127.6L97.9,127.6z M104,124.4c-0.1-0.2-0.2-0.4-0.6-0.4l0,0h-0.1c-0.1,0-0.1,0.1-0.2,0.1l0,0l0,0
		c0,0,0,0,0,0.1l0,0l0,0l0,0l0,0l0,0l0,0l0,0l0,0l0,0l0,0l0,0l0,0l0,0l0,0l0,0l0,0l0,0l0,0l0,0l0,0l0,0l0,0l0,0l0,0l0,0l0,0l0,0v0.1
		l0,0v0.1l0,0l0,0l0,0v0.1l0,0v0.1l0,0l0,0l0,0v0.1l0,0v0.1l0,0l0,0l0,0v0.1l0,0c0,0,0,0,0,0.1l0,0v0.1l0,0v0.1l0,0v0.1l0,0v0.1l0,0
		v0.1l0,0l0,0l0,0l0,0l0,0l0,0l0,0l0,0l0,0l0,0l0,0h0.1l0,0c0.1,0,0.4,0,0.5-0.1l0,0l0,0l0,0l0.1-0.1l0,0l0,0l0,0l0,0v-0.1l0,0v-0.1
		l0,0l0,0l0,0v-0.1l0,0v-0.1l0,0V125l0,0l0,0l0,0v-0.1l0,0l0,0l0,0l0,0l0,0l0,0l0,0l0,0l0,0c0,0,0,0,0-0.1l0,0l0,0l0,0l0,0l0,0l0,0
		l0,0l0,0l0,0l0,0l0,0l0,0l0,0v-0.1l0,0v-0.1l0,0C104.1,124.6,104.1,124.4,104,124.4L104,124.4z M100.8,124.8L100.8,124.8v0.1l0,0
		l0,0c0,0,0,0,0.1,0l0,0c0,0,0,0,0.1,0c0,0,0,0,0,0.1l0,0l0,0h0.1l0,0c0.1,0,0.4,0,0.4-0.1l0,0l0,0l0.1-0.1l0,0l0,0v-0.1l0,0l0,0
		l0,0l0,0l0,0l0,0l0,0v-0.1l0,0v-0.1l0,0l0,0l0,0v-0.1l0,0v-0.1l0,0l0,0l0,0l0,0l0,0l0,0l0,0v-0.1l0,0V124l0,0l0,0l0,0l0,0l0,0l0,0
		l0,0l0,0l0,0l0,0l0,0l0,0l0,0l0,0l0,0l0,0l0,0v-0.1l0,0v-0.1l0,0v-0.1l0,0c0.1-0.1,0-0.5,0-0.5c0-0.2-0.4-0.2-0.5-0.2
		c0,0-0.1,0-0.2,0l0,0h-0.1l-0.1,0.1l0,0l0,0l0,0l0,0l0,0l0,0l0,0l0,0l0,0l0,0l0,0l0,0l0,0l0,0l0,0l0,0l0,0l0,0l0,0l0,0l0,0
		c0,0,0,0,0,0.1l0,0v0.1l0,0l0,0l0,0v0.1l0,0v0.1l0,0c-0.1,0.2-0.2,0.6-0.4,0.8v0.5H100.8z M99,123.9L99,123.9L99,123.9v0.1l0,0l0,0
		l0,0l0.1,0.1c0.1,0,0.1,0,0.1,0.1c0.1,0,0.4,0,0.5-0.1l0,0l0,0l0,0l0,0c0,0,0,0,0.1,0V124l0,0l0,0l0,0l0,0l0,0l0,0l0,0l0,0l0,0l0,0
		l0,0v-0.1l0,0l0,0l0,0l0,0l0,0l0,0l0,0l0,0l0,0l0,0l0,0l0,0l0,0l0,0l0,0l0,0l0,0l0,0l0,0l0,0l0,0l0,0l0,0l0,0l0,0v-0.1l0,0v-0.1
		l0,0l0,0l0,0v-0.1l0,0v-0.1l0,0c0-0.1,0-0.2,0-0.4c0,0,0,0,0-0.1l0,0l0,0c0,0,0,0-0.1,0c-0.1-0.1-0.2-0.1-0.6-0.1l0,0H99l0,0l0,0
		l0,0c0,0-0.1,0-0.1,0.1l0,0l0,0v0.1l0,0v0.1l0,0l0,0l0,0l0,0l0,0l0,0l0,0l0,0l0,0l0,0l0,0l0,0l0,0v0.1l0,0l0,0l0,0l0,0l0,0l0,0l0,0
		l0,0l0,0l0,0l0,0l0,0l0,0l0,0l0,0l0,0C99.2,123.3,99,123.6,99,123.9L99,123.9"/>
	<path class="st2" d="M104.3,69.6c-2.1,0-3.3-1.1-3.3-3.2s1.1-3.3,3.3-3.3c2.1,0,3.2,1.1,3.2,3.3C107.5,68.4,106.5,69.6,104.3,69.6
		L104.3,69.6z M74.9,81.8c-2.1,0-3.3-1.1-3.3-3.2c0-2.1,1.1-3.3,3.3-3.3c2.1,0,3.2,1.1,3.2,3.3C78.1,80.7,77.1,81.8,74.9,81.8
		L74.9,81.8z M141.7,92.7l0.9-4l0.7-3.3l2.6-7.1l0.2-1.4c0-3.9-2.7-7.9-8.2-12l-8.3-6.3c-2.5-2.1-5.8-4.4-10.1-7
		c-2.1-1.2-3.7-2.1-4.6-2.6c-3,2.3-5.6,4.9-7.9,7.9c-6.3,7.9-13.9,12-22.9,12c-8.9,0-14.8-1.9-17.7-5.7c-0.6-0.6-0.9-1.3-1.1-2.1
		c-1.2,1.2-3,2.4-5.3,3.6c-3,1.7-4.9,3.2-5.6,4.7C53.6,71.5,53,74.4,53,78v1.5l-1.7,5c-0.6,1.4-0.9,2.8-1.3,4.2
		c-1.4,4.9-1.3,9.1,0.4,12.6c1.8,3.7,3.8,5.8,6.2,6.4c2.1,0.6,4.6-0.1,7.4-2c1.5-1.2,3.6-1.9,5.8-2.3c1.1-0.2,2.1-0.2,2.8-0.2h0.1
		c1.7-0.2,3.6-1.7,5.6-4c-0.1-0.8-0.4-1.7-0.7-2.6c-0.6,0.6-1.1,1.1-1.7,1.2c-1.3,0.2-2.7-0.4-4-2.1c-0.5-0.5-0.7-0.9-0.9-1.5
		c-0.2,1.2-0.1,2.5,0.4,4c-1.8-3-1.9-5.6-0.5-7.9l0.2-0.2c0.2-0.2,0.5-0.5,0.7-0.6l0.8-0.7l0.4-0.4c-0.4-0.5-0.7-0.8-1.1-1.1
		c-1.4-1.3-3-1.2-4.6,0.4l-0.6,0.6c-0.1,0.2-0.2,0.4-0.5,0.6c-1.2,0.9-3.3,1.8-6.2,2.1c-3.3,0.6-5,1.8-5.1,3.7
		c0,0.6-0.2,0.8-0.8,0.7c-0.6,0-0.8-0.2-0.8-0.8c0.1-2.8,2.3-4.5,6.4-5.2c0.9-0.2,1.9-0.4,2.7-0.6c0.5-0.2,0.9-0.4,1.4-0.6
		c2.3-3.3,1.7-8.1-2.1-14.1c-0.4-0.5-0.2-0.8,0.2-1.1c0.5-0.2,0.8-0.2,1.2,0.2c0.6,1.1,1.3,2.5,2.1,4.3c0.4-0.9,0.9-1.8,1.8-2.4
		L66,79.8c0.6,2.3,0.7,4.4,0.4,6c2.1-1.9,4.4-2,6.5-0.1c0.2,0.2,0.6,0.6,0.9,0.8c1.1-1.8,3.3-3.7,6.6-5.7l-0.1-0.2
		c-0.9-2.5-1.1-4.6-0.6-6.6l0.4-4.9l0.9,0.2l3.7,2.1c2,1.8,3.1,4.2,3.2,7.1c1.8,0.6,2.7,1.5,3.2,2.7c1.5-1.2,3.3-2.4,5.3-3.7
		c6.6-4.3,11.9-6.6,16-7.2c-0.6-0.9-1.2-2.1-1.5-3.3l-0.6-4.9c1.3,4.9,3.7,9,7.1,12.3c-1.5-0.6-2.8-1.5-3.8-2.7
		c-0.1,0.1-0.1,0.1-0.2,0.1c-0.1,0.1-0.2,0.1-0.4,0.1c-3.9,0.5-9.1,2.8-15.7,7.1c-2.4,1.5-4.4,3-6,4.4l-0.2,0.8
		c0.2,0.2,0.2,0.6,0.4,0.9c0.2,0.8,0,1.8-0.8,2.5c0,0.1,0,0.2,0.1,0.2c0.1,0.1,0.1,0.2,0.2,0.5c0.2,0.8,0,1.8-0.6,2.8
		c-0.2,0.4-0.4,0.7-0.6,0.9c0.6,2.3,2.5,4,5.3,5.3c3.6,1.5,6.3,3.7,8.2,6.6c1.3,1.8,2.1,3.9,2.7,6.4c0.6,2.6,0.8,5.6,0.6,8.7
		c-0.2-3.3-0.9-6.3-1.8-8.7c-0.9-2.6-2.1-4.9-3.7-6.6c-1.8-2-3.9-3.4-6.5-4.3c-3.6-1.2-5.8-3.3-6.8-6.3c-0.1,0-0.1,0-0.2,0
		c-0.5,0-0.8-0.1-1.1-0.2v0.1c-0.1,2.8,0.6,5.7,1.9,8.7c1.2,2.8,3.1,5.7,5.7,8.7c3.8,4.5,9.1,8.9,16,13.4c0.2-0.2,0.6-0.6,0.8-0.9
		c1.8-1.9,3.3-4.9,4.9-9l0.4-0.9c0.2-0.8,0.6-1.8,0.8-2.6c0.2-0.8,0.4-1.7,0.6-2.5c-1.3,0.1-2.6-0.1-3.7-0.6
		c-0.9-0.8-1.5-1.2-1.5-1.3c-0.2-0.5-0.2-0.8,0.2-1.1l4.9-3.7c3-0.5,5.2-1.7,7-3.7c0-0.1,0-0.1,0-0.2v-0.2l0.9-3l-0.1-0.2
		c-0.1-0.8-0.1-1.7-0.2-2.5c-0.1-1.2-0.1-2.3,0-3.3c0.1-2.4,0.4-4.5,0.9-6.4c-3.7-1.3-5.7-5.1-6.2-11.4c-0.2-2.4-0.6-4-1.4-5.2
		l-1.1-1.1c1.9,0,3.3,2.6,4.3,7.9c0.7,4.5,2.5,7.1,5.1,7.9c0.8-2.1,2-3.7,3.3-4.9c0.7-0.6,1.4-0.9,2.1-1.2c0.5-0.1,0.7,0.1,0.9,0.6
		v0.2c0,0.5-0.2,0.7-0.6,0.8l-3,2.5c-1.8,2.5-2.7,5.8-2.8,10.2v1.2l0.2,3.6c0.6,0.1,1.3,0.2,2.1,0.7c1.7,0.8,2.8,2.1,3.7,3.8
		c0.8,1.9,0.8,3.8-0.1,5.6C136.9,101.6,140,98,141.7,92.7"/>
	<path class="st2" d="M83.8,89.3v-0.5c0-0.1,0-0.1,0.1-0.1l0,0c0.1-0.4,0.2-0.6,0.6-0.6c0.1-0.1,0.1-0.1,0.2-0.1
		c0.9,0,1.8,0.2,2.3,0.6l0.2,0.2c0.1,0.1,0.1,0.1,0.1,0.1c0.1,0.1,0.1,0.2,0.2,0.2c0.4,0.6,0.4,1.3-0.1,2c0,0.1,0,0.1,0,0.2v0.4
		c0.1,0.1,0.1,0.1,0.2,0.2c0.5-0.1,0.8-0.6,1.3-1.3c0.4-0.8,0.5-1.3,0.2-1.8c-0.1-0.1-0.1-0.2-0.2-0.4c-0.6-0.9-1.7-1.8-3.2-2.3
		c-0.2-0.1-0.4-0.1-0.6-0.2c-0.6-0.2-0.7-0.6-0.6-1.1c0.2-0.5,0.6-0.6,1.1-0.6l2,0.9c0.6,0.4,1.3,0.7,1.8,1.2
		c0.2-0.2,0.4-0.6,0.2-0.9c-0.1-0.6-0.6-1.3-1.7-1.8c-0.6-0.4-1.3-0.6-2.1-0.9c-0.5-0.2-0.6-0.5-0.6-0.9c0-0.1,0-0.1,0-0.2
		c0.2-0.5,0.6-0.6,1.1-0.6h0.1c1.1,0.5,2,0.9,2.7,1.3c0.2-0.2,0.4-0.6,0.2-0.7c-0.1-0.5-0.6-0.9-1.7-1.4c-0.5-0.2-1.1-0.6-1.8-0.8
		c-0.1-0.1-0.2-0.1-0.4-0.2c-1.2,0.6-2.4,1.3-3.3,1.9c-0.6,0.2-1.1,0.6-1.5,0.9c-3.2,2.1-5.2,3.9-5.9,5.5c-0.1,0.2-0.2,0.4-0.2,0.6
		c-0.1,0.1-0.1,0.2-0.1,0.4c-0.1,0.4-0.2,0.6-0.5,0.7c-0.1,0-0.1,0-0.2,0c-0.8,0.2-1.4,0.7-1.8,1.5c-0.5,1.1-0.2,2.1,0.8,3.3
		c0.9,1.2,1.8,1.8,2.5,1.5c0.6-0.1,0.9-0.5,1.4-1.1c0.2-0.5,0.5-0.9,0.7-1.7l-1.3-0.2c-0.1,0-0.1,0-0.1,0c-0.8-0.2-1.2-0.5-1.2-0.8
		c0.1-0.5,0.2-0.6,0.4-0.6H79l2.8,0.4c0.2-0.1,0.6-0.2,0.8-0.4C82.9,90.9,83.2,90.1,83.8,89.3"/>
	<path class="st2" d="M79.2,93.5C79,94,78.7,94.5,78.6,95c0.1,0.2,0.2,0.5,0.2,0.7c0.6,1.3,0.9,2.6,1.1,3.7c0.4,0.2,0.8,0.4,1.3,0.6
		c-0.2-2.1,0-4,0.6-6.2L79.2,93.5"/>
	<path class="st2" d="M73,45.9c-0.2,0.4-0.1,0.8,0.6,1.3c0.6,0.6,0.9,0.8,1.1,0.6c0.2-0.2,0.1-0.6-0.6-1.3
		C73.5,45.7,73.1,45.5,73,45.9"/>
	<path class="st2" d="M87.5,31.6L86.2,31h-0.1c-0.1,0-1.3,0.8-4,2.5l2.8,1.8C85.4,33.5,86.2,32.3,87.5,31.6"/>
	<path class="st2" d="M80.1,39c-0.7,0.6-1.1,1.1-1.2,1.5c-0.4-1.1-0.2-2,0.6-2.6c0.8-0.6,1.8-0.6,2.8,0.1L80.1,39L80.1,39z
		 M84.3,41.2l0.6,1.3l-3.4,1.8l-0.6-0.6c-1.1-1.5-1.1-2.7,0-3.7C82,39.2,83.1,39.7,84.3,41.2L84.3,41.2z M83,55.2
		c-1.2,0.6-2.4,0.4-3.3-0.6c-0.9-1.1-1.7-1.8-2-2.1l-2-0.7c3.2-0.7,6.3-2.3,9.1-4.5l-0.4,2.4C85.1,52.9,84.5,54.6,83,55.2L83,55.2z
		 M72.4,50.1l-0.9-1.2c-0.8-1.8-0.6-3,0.6-3.7c1.3-0.6,2.5,0,3.3,1.8l0.2,0.8L72.4,50.1L72.4,50.1z M70.3,45.7
		c-0.2-1.1,0.1-1.9,0.9-2.5c0.8-0.6,1.8-0.5,2.8,0.5l-2.4,0.6C70.9,44.8,70.4,45.3,70.3,45.7L70.3,45.7z M76.7,44
		c0.5,0.2,0.6,0.9,0.6,2c0,1.7,0.2,2.5,0.5,2.6c-0.9-0.1-1.4-0.8-1.3-2.1L76,43.8L76.7,44L76.7,44z M78.6,37.6
		c-2.3,3-4.9,4.5-7.9,4.4c-0.9,0-2.1-0.4-3.3-0.9c-0.4,0.8-0.6,1.7-0.6,2.4c0,0.4,0.1,0.7,0.2,1.1c0.1,0.5,0.4,0.8,0.6,1.1l4,6.4
		c1.3,2.6,3.1,4.3,5.3,4.9l4.6,1.1c1.2,0.4,2.4,0.2,3.6-0.5c0.9-0.6,1.7-1.3,1.8-2.1l1.4-3.1l0.6-1.1c0.5-0.8,0.7-2.1,0.7-3.7
		l-0.1-2.1l0.1-0.9l0.7-8.9c0-0.6-0.4-1.4-1.1-2.5c-1.1,0.2-1.9,0.9-2.4,2c-0.2,0.6-0.4,1.1-0.4,1.7c0,0.2-0.1,0.6-0.4,0.8
		c-0.2,0.1-0.6,0.1-0.9,0L81,34.8C80.1,35.7,79.3,36.6,78.6,37.6"/>
	<path class="st2" d="M84.1,42.4c0.2-0.2,0-0.7-0.6-1.3c-0.6-0.6-0.9-0.9-1.2-0.6c-0.2,0.2-0.1,0.6,0.6,1.3
		C83.3,42.4,83.7,42.7,84.1,42.4"/>
	<path class="st2" d="M86.2,78.4c-0.2-3.3-1.8-5.6-4.6-6.9l-0.4,4.7c0,1.4,0.2,2.7,0.7,4c1.1-0.6,2.3-1.4,3.7-2
		C85.7,78.2,86,78.2,86.2,78.4"/>
	<path class="st2" d="M104.3,64.7c-1.1,0-1.7,0.6-1.7,1.7c0,0.9,0.6,1.5,1.7,1.5c0.9,0,1.5-0.6,1.5-1.5
		C105.9,65.3,105.4,64.7,104.3,64.7"/>
	<path class="st2" d="M131.4,148.9c-0.9-5.6-1.2-10.8-0.7-15.9c0.1-0.8,0.2-1.7,0.2-2.5l1.7-6.8l-2.8,8.2c-0.1,0.4-0.1,0.7-0.2,0.9
		c-1.3,6-1.5,11.4-0.5,16.5c1.8,8.3,2.5,17,2.3,25.7C133.3,167.9,133.3,159.1,131.4,148.9"/>
	<path class="st2" d="M150.3,183.5c0.5,0,0.7,0.2,0.7,0.6c0,0.4-0.2,0.6-0.7,0.6c-0.4,0-0.6-0.2-0.6-0.6
		C149.7,183.8,150,183.5,150.3,183.5L150.3,183.5z M138.8,197.5c0.9,0,2.1-0.1,3.1-0.2c3.7-0.6,5.7-2.4,6-5.2v-0.8l-0.1-0.9
		c0-1.3,0.5-2.5,1.3-3.4c0.6-0.6,1.9-1.1,4-1.4c-0.8-1.3-1.8-2.1-2.7-2.5c-0.9-0.2-2.1,0.2-3.3,1.3c-2.8,2.6-5.2,4.2-7.1,4.6
		c-0.5,0.1-0.8,0.2-1.3,0.2v8.4"/>
	<path class="st2" d="M129.5,102.5l0.6,1.3c0.9-1.2,1.3-2.3,1.3-3.4c0-0.6-0.2-1.1-0.5-1.8c-0.8-1.9-2.1-3-4-3.4l-0.8,2.5l0.7,0.7
		C128.5,99.5,129.4,100.9,129.5,102.5"/>
	<path class="st2" d="M74.9,76.9c-1.1,0-1.7,0.6-1.7,1.7c0,0.9,0.6,1.5,1.7,1.5c0.9,0,1.5-0.6,1.5-1.5
		C76.5,77.5,75.9,76.9,74.9,76.9"/>
	<path class="st2" d="M127.8,103.4c0-1.3-0.7-2.5-2.1-3.6c-0.1-0.1-0.2-0.1-0.4-0.2c-0.7,0.6-1.4,1.3-2.1,1.8
		c-1.7,1.1-3.3,1.8-5.1,1.9l-3.7,2.8c0.9,0.6,2.1,0.8,3.7,0.6c0.5-0.1,0.9-0.2,1.4-0.5c0.5-0.1,0.7,0,0.9,0.4
		c0.5,0.8,0.6,1.5,0.6,2.1c0,0.5-0.1,0.8-0.2,1.3c-0.1,0.2-0.4,0.6-0.7,0.8c-0.5,0.2-0.9,0.5-1.5,0.7l-0.8,2.3c3.7,0,6.4-0.9,7.7-3
		c0.1-0.1,0.2-0.2,0.2-0.5c1.3-1.8,2-3.7,2.1-5.8L127.8,103.4"/>
	<polyline class="st2" points="119.2,177.2 119,177.5 121.2,177.2 127.5,176.4 127.5,159 124.3,159.2 119.2,177.2 	"/>
	<path class="st2" d="M118.7,158.5c0-0.4-0.2-0.6-0.6-0.6l-23.4,2.3c-2.3-2.4-4.3-3.6-6.2-3.6c-1.3,0-3,0.5-5.1,1.4l-1.9,0.9
		l-33.2-6c-0.5-0.1-0.6,0-0.6,0.5c-0.1,0.2,0,0.6,0.5,0.6l41.7,7.6v49.7c0,0.4,0.2,0.6,0.6,0.6s0.6-0.2,0.6-0.6v-49.6l27.2-2.5
		C118.6,159,118.7,158.7,118.7,158.5"/>
	<path class="st2" d="M129.4,178.6l-31.4,4.5l4.3,1.1l31.4-4.5C130.9,179,129.4,178.7,129.4,178.6"/>
	<polyline class="st2" points="78.6,177.2 72.6,192.1 70.1,198 86.8,202.4 86.8,164.4 84.1,163.8 78.6,177.2 	"/>
	<path class="st2" d="M158.2,198.7c-0.4,0-0.6-0.2-0.6-0.6s0.2-0.6,0.6-0.6s0.6,0.2,0.6,0.6S158.5,198.7,158.2,198.7L158.2,198.7z
		 M158.3,197c-1.1-0.2-2.1,0.2-3.3,1.3c-0.5,0.5-0.8,0.8-1.3,1.2c-2.3,1.9-4.2,3-5.7,3.4c-2.6,0.6-5.2-0.2-8.1-2.5l-1.7,0.9
		c0.2,0.6,0.9,1.2,1.8,1.5l-0.6,1.5l-2.3-1.3l-0.8,1.9c0,0,0,0,0.1,0.1c0.5,0.6,0.9,1.1,1.4,1.7c3.7,3.7,7.6,5.2,11.9,4.4
		c3.3-0.6,5.2-2.1,5.9-4.4c0.1-0.6,0.2-1.1,0.2-1.7V204c0.1-1.2,0.5-2.3,1.3-3.2c0.6-0.6,1.9-1.1,4-1.3c-0.1-0.1-0.1-0.2-0.2-0.2
		C160.1,198,159.2,197.3,158.3,197"/>
	<path class="st2" d="M163.4,190.5c-0.4,0-0.6-0.2-0.6-0.6s0.2-0.6,0.6-0.6s0.6,0.2,0.6,0.6S163.7,190.5,163.4,190.5L163.4,190.5z
		 M184.3,198.1l1.2-2.7c-2.3-1.2-4.5-1.1-7,0.5c-1.3,0.8-2.4,1.8-3.2,3l-0.6,0.6l-6.3-4l-0.1-0.2c-0.2-1.1-0.6-2.1-0.9-2.8
		c-0.8-2.1-1.8-3.2-3-3.3c-0.9-0.1-2.1,0.6-3.6,2.1c0.7,0.2,1.3,0.7,1.8,1.2c1.1,1.2,1.7,2.8,1.7,5.3v1.7c0,3.8,1.7,6.4,4.9,7.8
		c0.2,0.1,0.6,0.1,0.8,0.2c2.1,0.6,4,0.6,5.8-0.2c1.3-0.7,2.5-1.9,3.4-3.4l-0.8-1.9l0.2-0.5c0.5-0.6,1.2-0.9,2-1.2l-1.8-2.4l1.5-0.1
		C181.9,197.3,183.2,197.6,184.3,198.1"/>
	<path class="st2" d="M35.3,189.2c0.4,0,0.6,0.2,0.6,0.6s-0.2,0.6-0.6,0.6s-0.6-0.2-0.6-0.6S35,189.2,35.3,189.2L35.3,189.2z
		 M34.6,198.8l-0.1-1.7c0-2.3,0.6-4,1.5-5.2l0,0c0.5-0.6,1.1-1.1,1.9-1.4c-1.4-1.5-2.5-2.3-3.6-2.1c-1.2,0.2-2.1,1.3-3.1,3.6l0,0
		c-0.2,0.8-0.6,1.8-0.9,2.7l-6.4,4.5l-0.5-0.7c-0.9-1.1-2-2-3.2-2.8c-2.5-1.5-4.9-1.7-7.1-0.5l1.2,2.6c1.3-0.6,2.5-0.7,3.9-0.6
		l1.5,0.1l-1.8,2.4c0.9,0.2,1.5,0.6,2,1.2l0.4,0.5l-0.9,1.8c1.2,1.8,2.5,3.1,4,3.7c1.5,0.6,3.3,0.7,5.2,0.1c0.1-0.1,0.2-0.1,0.4-0.1
		l0,0C32.8,205.5,34.6,202.7,34.6,198.8"/>
	<path class="st2" d="M50.5,202.1c-0.4,0-0.6-0.2-0.6-0.6c0-0.5,0.2-0.7,0.6-0.7c0.5,0,0.7,0.2,0.7,0.7
		C51.2,201.9,51,202.1,50.5,202.1L50.5,202.1z M69.1,208.1l-0.2-1.2l-0.1-0.4c0.8-0.2,1.3-0.7,1.8-1.3l-1.8-1.3
		c-0.2,0.2-0.6,0.5-0.9,0.7c-2.5,1.8-4.9,2.4-7.1,1.8c-0.7-0.2-1.5-0.6-2.4-0.9c-1.4-0.8-3-2.1-4.7-3.7c-1.2-1.1-2.4-1.5-3.3-1.3
		c-0.2,0.1-0.6,0.2-0.9,0.4c-0.6,0.4-1.2,0.9-1.8,2c0.1,0,0.2,0,0.4,0.1c1.9,0.4,3.2,0.8,3.7,1.3c0.5,0.5,0.7,0.9,0.9,1.7
		c0.1,0.2,0.2,0.6,0.2,0.9v1.8c0,1.3,0.2,2.4,0.9,3.3c0.9,1.3,2.7,2.4,5.2,2.8c4.3,0.8,8.2-0.6,11.9-4.4c0.6-0.6,1.1-1.1,1.5-1.8
		l-0.5-1.3C71.2,207.6,70.2,207.8,69.1,208.1"/>
	<path class="st2" d="M104.1,124.6L104.1,124.6v0.1l0,0v0.1l0,0l0,0l0,0l0,0l0,0l0,0l0,0l0,0l0,0l0,0l0,0l0,0l0,0v0.1l0,0l0,0l0,0
		l0,0l0,0l0,0l0,0l0,0l0,0v0.1l0,0l0,0l0,0v0.1l0,0v0.1l0,0v0.1l0,0l0,0l0,0v0.1l0,0v0.1l0,0l0,0l0,0l0,0c0,0.1-0.1,0.1-0.1,0.1l0,0
		l0,0l0,0c-0.1,0-0.4,0.1-0.5,0.1l0,0h-0.1l0,0l0,0l0,0l0,0l0,0l0,0l0,0l0,0l0,0l0,0l0,0c0,0,0,0,0-0.1l0,0v-0.1l0,0v-0.1l0,0v-0.1
		l0,0v-0.1l0,0v-0.1l0,0v-0.1l0,0l0,0l0,0V125l0,0v-0.1l0,0l0,0l0,0v-0.1l0,0v-0.1l0,0l0,0l0,0c0,0,0,0,0-0.1l0,0v-0.1l0,0l0,0l0,0
		l0,0l0,0l0,0l0,0l0,0l0,0l0,0l0,0l0,0l0,0l0,0l0,0l0,0l0,0l0,0l0,0l0,0l0,0l0,0l0,0l0,0l0,0l0,0l0,0c0,0,0,0,0-0.1l0,0l0,0
		c0.1,0,0.1-0.1,0.2-0.1h0.1l0,0c0.4,0,0.5,0.1,0.6,0.4C104.1,124.4,104.1,124.6,104.1,124.6L104.1,124.6z M102.6,127.7
		c0.1,0.2,0,0.4-0.1,0.5v0.1c-0.1,0.4-0.2,0.7-0.4,1.1v0.1l0,0v0.1l0,0v0.1l0,0v0.1l0,0v0.1l0,0l0,0l0,0l0,0l-0.1,0.1l0,0
		c0,0,0,0-0.1,0c-0.1,0-0.4,0-0.5,0l0,0h-0.1l0,0l0,0c-0.1-0.1-0.2-0.4-0.2-0.6l0,0v-0.1l0,0c0-0.1,0-0.1,0-0.2
		c0.1-0.2,0.2-0.6,0.4-0.8v-0.1l0,0V128l0,0l0,0l0,0v-0.1l0,0v-0.1l0,0v-0.1l0,0v-0.1l0,0l0,0l0,0v-0.1l0,0l0.1-0.1h0.1l0,0
		c0,0,0.1,0,0.2,0C102.3,127.2,102.6,127.3,102.6,127.7L102.6,127.7L102.6,127.7L102.6,127.7z M101.5,131.4c0,0,0,0.1,0,0.2l0,0v0.1
		l0,0c0,0.1,0,0.1,0,0.2l0,0c0,0.1,0,0.1,0,0.2c0,0.1-0.1,0.4-0.1,0.6v0.1l0,0v0.1l0,0v0.1l0,0v0.1l0,0v0.1l0,0v0.1l0,0l0,0
		c0,0-0.1,0-0.1,0.1c0,0,0,0.1-0.1,0.1c0,0-0.2,0.1-0.4,0.1l0,0h-0.1l0,0l0,0c0,0,0,0,0-0.1c0,0,0,0-0.1,0l0,0c0,0,0,0-0.1,0l0,0
		l0,0v-0.1l0,0v-0.2c0.1-0.5,0.2-0.9,0.4-1.3v-0.6c0-0.2,0.1-0.4,0.1-0.6l0,0l0,0c0,0,0,0,0.1-0.1l0,0l0,0l0,0h0.1l0,0
		c0.4,0,0.5,0,0.7,0.4l0,0l0,0l0,0C101.5,131.1,101.5,131.2,101.5,131.4L101.5,131.4L101.5,131.4z M100.5,135.2c0,0.1,0,0.1,0,0.2
		l0,0v0.1c-0.1,0.1-0.1,0.4-0.1,0.6v0.1c0,0.1-0.1,0.4-0.1,0.5v0.1l0,0l0,0c0,0-0.1,0-0.1,0.1c0,0,0,0.1-0.1,0.1l0,0h-0.1
		c-0.2,0.1-0.2,0-0.5,0c0,0,0,0-0.1-0.1c-0.1-0.1-0.1-0.2-0.2-0.4c0-0.1,0-0.2,0-0.4v-0.1l0,0V136l0,0v-0.1l0,0c0-0.1,0-0.1,0-0.2
		c0.1-0.2,0.1-0.6,0.2-0.8v-0.1l0,0v-0.1l0,0v-0.1l0,0l0,0l0,0l0,0l0,0l0,0c0,0,0,0,0.1-0.1l0,0l0,0l0,0h0.1l0,0
		c0.4,0,0.4,0,0.6,0.1c0,0,0,0,0.1,0l0,0l0,0v0.1l0,0C100.8,134.7,100.7,135,100.5,135.2L100.5,135.2z M100.1,138.2L100.1,138.2v0.1
		l0,0v0.1l0,0v0.1l0,0v0.1c0,0.1-0.1,0.4-0.1,0.6v0.1c-0.1,0.2,0,0.6-0.1,0.7c-0.1,0.1-0.4,0.2-0.6,0.2c-0.4-0.1-0.5-0.4-0.4-0.8
		v-0.1l0,0v-0.1l0,0v-0.1l0,0v-0.1c0-0.1,0.1-0.4,0.1-0.5v0l0,0v-0.1l0,0v-0.1l0,0v-0.1l0,0v-0.1l0,0V138l0,0l0.1-0.1h0.1l0,0h0.1
		l0,0C99.8,137.6,99.9,137.9,100.1,138.2L100.1,138.2L100.1,138.2z M99.5,141.9v0.2c-0.1,0.4,0,0.7-0.1,1.1v0.2l0,0
		c0,0.1,0,0.2,0,0.4l0,0v0.1l0,0v0.1l0,0l-0.1,0.1c-0.1,0.1-0.4,0.1-0.6,0l0,0h-0.1l0,0c0,0,0,0-0.1,0V144l0,0l0,0l0,0l0,0l0,0v-0.1
		l0,0c0-0.1,0-0.5,0-0.6v-0.2c0.1-0.2,0-0.6,0.1-0.8c0-0.1,0-0.2,0-0.4c0-0.2,0.1-0.5,0.4-0.5l0,0H99l0,0c0.1,0,0.4,0,0.4,0.1
		c0,0,0,0,0,0.1c0,0,0,0,0.1,0l0,0c0,0,0,0,0.1,0l0,0l0,0v0.1l0,0C99.5,141.7,99.5,141.8,99.5,141.9L99.5,141.9L99.5,141.9z
		 M99.1,145.5v0.2l0,0v0.2l0,0v0.2l0,0v0.4l0,0v0.4l0,0v0.4l0,0c0,0.1,0,0.1,0,0.1l0,0l0,0l0,0l0,0c-0.1,0-0.1,0.1-0.2,0.1l0,0l0,0
		h-0.1l0,0c-0.1,0-0.4,0-0.4,0l0,0l0,0l0,0l0,0l0,0l0,0c0-0.1-0.1-0.1-0.1-0.2v-0.1c0-0.1-0.1-0.2,0-0.4l0,0v-0.4l0,0v-0.4l0,0v-0.2
		l0,0v-0.2l0,0v-0.2l0,0c0-0.1,0-0.2,0-0.4l0,0v-0.1l0,0l0,0l0,0l0,0c0,0,0.1,0,0.1-0.1l0,0l0,0l0,0h0.1h0.4
		C99,144.9,99.2,145.2,99.1,145.5L99.1,145.5z M98.9,149.1v0.4l0,0c0,0.1,0,0.4,0,0.5v0.5l0,0v0.4c-0.1,0.2-0.2,0.4-0.5,0.5
		c-0.1,0-0.4,0-0.4,0l0,0l0,0l0,0l0,0l0,0l0,0l0,0l0,0l0,0c0,0,0,0,0-0.1l0,0c0-0.1,0-0.1,0-0.2l0,0c0-0.1,0-0.1,0-0.2v-0.4l0,0
		c0-0.1,0-0.4,0-0.5v-0.2V149l0,0v-0.1l0,0v-0.1c0,0,0.1,0,0.1-0.1l0,0l0,0l0,0h0.1l0,0h0.4c0.2,0.1,0.4,0.2,0.4,0.5
		C98.9,148.9,98.9,149,98.9,149.1L98.9,149.1z M98.6,153.1L98.6,153.1v0.4c0,0.2,0,0.5,0,0.7v0.4l0,0v0.1l0,0l0,0
		c0,0.1-0.1,0.1-0.1,0.2l0,0l0,0c-0.1,0-0.4,0.1-0.5,0l0,0h-0.1l0,0c0,0,0,0-0.1,0v-0.1l0,0l0,0l0,0l0,0l0,0v-0.1l0,0V154
		c0-0.2,0-0.5,0-0.7c0-0.2,0-0.5,0-0.6v-0.2l0,0v-0.1l0,0l0,0l0,0c0.1-0.2,0.4-0.4,0.6-0.2h0.1l0,0c0.1,0,0.1,0.1,0.2,0.1l0,0l0,0
		l0,0c0,0,0,0,0,0.1s0,0.4,0,0.6v0.1H98.6z M97.5,138.9h-0.1l0,0c-0.1,0-0.1,0-0.2,0l0,0H97l0,0h-0.1l0,0c-0.2,0-0.4-0.4-0.2-0.7
		v-0.1c0.1-0.4,0.1-0.8,0.2-1.3c0-0.1,0-0.2,0.1-0.5l0,0v-0.1l0,0l0.1-0.1l0,0l0,0c0,0,0,0,0.1,0h0.1l0,0c0.4,0,0.5,0.1,0.6,0.4
		c0,0.1,0,0.4,0,0.5s0,0.1,0,0.2c-0.1,0.2-0.1,0.6-0.2,0.8v0.1c-0.1,0.2-0.1,0.6-0.2,0.7l0,0C97.6,138.8,97.6,138.9,97.5,138.9
		L97.5,138.9L97.5,138.9L97.5,138.9z M97.3,140.5c0,0.1,0,0.2,0,0.2l0,0v0.1c0,0.1-0.1,0.4-0.1,0.6s-0.1,0.5-0.1,0.7l0,0l0,0
		c0,0.1-0.1,0.1-0.1,0.2c0,0-0.1,0-0.1,0.1c-0.1,0-0.2,0-0.4,0c0,0-0.1,0-0.2-0.1c-0.1-0.1-0.2-0.1-0.2-0.4c0-0.1,0-0.1,0-0.2l0,0
		v-0.1l0,0v-0.1l0,0v-0.1c0.1-0.2,0.1-0.6,0.1-0.9v-0.1l0,0v-0.1l0,0v-0.1l0,0V140l0,0v-0.1l0,0l0,0c0,0,0,0,0.1,0l0.1-0.1l0,0h0.1
		l0,0C97.2,139.7,97.6,140,97.3,140.5L97.3,140.5z M96.9,144v0.2l0,0v0.2l0,0v0.2l0,0v0.2c0,0.2,0,0.5-0.1,0.7c0,0.1,0,0.1,0,0.2
		l0,0v0.1l0,0l-0.1,0.1h-0.1l0,0h-0.2c-0.1,0-0.4,0-0.5,0c-0.1,0-0.1-0.1-0.2-0.1l0,0l0,0c0,0,0,0,0-0.1c0-0.2,0-0.5,0-0.6v-0.2l0,0
		v-0.2l0,0v-0.4l0,0v-0.2l0,0V144l0,0v-0.2l0,0v-0.2l0,0v-0.1l0,0v-0.1l0,0l0,0c0,0,0,0,0.1,0c0,0,0,0,0-0.1l0,0c0,0,0,0,0-0.1
		c0,0,0,0,0.1,0h0.1l0,0c0.4,0,0.5,0.1,0.6,0.2C97,143.7,96.9,143.9,96.9,144L96.9,144z M96.5,147.4v0.4l0,0v0.4l0,0v0.4l0,0v0.4
		l0,0v0.4l0,0v0.2l0,0v0.1l0,0l0,0l0,0l0,0c0,0,0,0-0.1,0l-0.1,0.1l0,0l0,0l0,0l0,0c0,0-0.2,0-0.4,0l0,0h-0.1l0,0
		c-0.1,0-0.1-0.1-0.2-0.1l0,0l0,0l0,0c0,0,0,0,0-0.1c0-0.1-0.1-0.4,0-0.5l0,0v-0.4l0,0v-0.2c0-0.1,0-0.4,0-0.5l0,0v-0.2l0,0v-0.2
		l0,0v-0.1l0,0v-0.1l0,0l0,0l0,0l0.1-0.1l0,0l0,0h0.1l0,0h0.4l0,0l0,0l0,0h0.1l0,0l0,0c0,0,0,0.1,0.1,0.1l0,0l0,0l0,0l0,0l0,0v0.1
		l0,0v0.1C96.5,147.4,96.5,147.4,96.5,147.4L96.5,147.4L96.5,147.4z M96.3,152.3c0,0.4,0,0.6-0.1,0.8c0,0,0,0.1-0.1,0.1l0,0l0,0
		c-0.1,0-0.5,0.1-0.5,0c-0.1,0-0.1-0.1-0.1-0.1c-0.2-0.2-0.1-0.6-0.1-0.9c0-0.2,0-0.5,0-0.7v-0.6l0,0v-0.1l0,0l0,0l0,0l0,0l0,0l0,0
		l0,0c0,0,0-0.1,0.1-0.1l0,0l0,0l0,0l0,0h0.1l0,0c0.2,0,0.4,0,0.6,0.1l0,0c0,0,0,0.1,0.1,0.1v0.1l0,0
		C96.3,151.4,96.3,151.9,96.3,152.3L96.3,152.3z M96.3,156.7C96.1,156.7,96.1,156.7,96.3,156.7c-0.1,0.1-0.1,0.1-0.1,0.1
		c-0.1,0-0.4,0.1-0.5,0.1l0,0h-0.1l0,0c-0.1,0-0.4-0.2-0.4-0.4V156c0-0.2,0-0.6,0-0.8v-0.7l0,0v-0.1l0,0v-0.1c0,0,0.1,0,0.1-0.1l0,0
		l0,0l0,0c0,0,0,0,0.1,0h0.1l0,0c0.2,0,0.4,0,0.5,0.2l0,0l0,0l0,0l0,0l0,0c0,0.1,0,0.4,0,0.5c0,0.2,0,0.6,0,0.8
		C96.3,156,96.4,156.5,96.3,156.7L96.3,156.7z M95.1,137.9c-0.1,0-0.4,0-0.5,0c-0.1,0-0.1-0.1-0.2-0.1l0,0l0,0l0,0v-0.1
		c-0.1-0.1,0-0.2,0-0.4v-0.1l0,0V137c0.1-0.4,0.2-0.8,0.4-1.2v-0.1c0-0.1,0.1-0.2,0.1-0.4l0,0l0.1-0.1l0,0l0,0h0.1l0,0h0.4
		c0.2,0.1,0.4,0.2,0.4,0.4c0,0.1,0,0.4-0.1,0.5c0,0.1,0,0.1,0,0.2c-0.1,0.2-0.1,0.5-0.2,0.7v0.1l0,0c0,0.1,0,0.1,0,0.2l0,0v0.1l0,0
		v0.1l0,0v0.1l0,0v0.1l0,0v0.1l0,0l0,0c0,0-0.1,0-0.1,0.1l0,0L95.1,137.9C95.2,137.8,95.2,137.8,95.1,137.9L95.1,137.9L95.1,137.9
		L95.1,137.9z M95.1,139.3c-0.1,0.4-0.1,0.7-0.2,1.1v0.1c-0.1,0.2-0.1,0.6-0.2,0.7l0,0c0,0,0,0.1-0.1,0.1s-0.4,0.1-0.5,0.1l0,0h-0.1
		l0,0c-0.1,0-0.2-0.2-0.4-0.4v-0.4c0.1-0.5,0.1-0.9,0.2-1.3v-0.1l0,0v-0.1l0,0v-0.1l0,0v-0.1c0.1-0.1,0.1-0.1,0.2-0.2l0,0l0,0h0.1
		l0,0c0.4,0,0.5,0,0.6,0.2l0,0l0,0l0,0C95.1,138.8,95.1,139.2,95.1,139.3L95.1,139.3z M94.5,143.1v0.2l0,0v0.2l0,0v0.2l0,0v0.2l0,0
		v0.2l0,0c0,0.1,0,0.2,0,0.5c0,0.1,0,0.1-0.1,0.2c0,0,0,0-0.1,0l0,0c0,0.1-0.4,0.2-0.6,0.1l0,0h-0.1l0,0l0,0l0,0l0,0l-0.1-0.1l0,0
		l0,0v-0.1l0,0v-0.4c0,0,0-0.1,0-0.2l0,0V144l0,0v-0.2l0,0v-0.2l0,0v-0.2l0,0v0l0,0v-0.2l0,0c0-0.2,0-0.5,0.1-0.7l0,0v-0.1l0,0
		c0,0,0,0,0-0.1h0.1l0,0h0.1l0,0h0.1l0,0c0.1,0,0.2,0,0.4,0l0,0l0,0l0,0l0,0l0,0l0,0l0,0c0,0,0,0,0.1,0c0,0,0,0.1,0.1,0.1
		C94.5,142.6,94.5,142.9,94.5,143.1L94.5,143.1z M94.1,146.5L94.1,146.5v0.4l0,0v0.4l0,0c0,0.1,0,0.4,0,0.5v0.2l0,0v0.2
		c-0.1,0.2-0.2,0.4-0.5,0.4c-0.1,0-0.2,0-0.4,0l0,0l0,0l0,0l0,0l-0.1-0.1l0,0l0,0v-0.1l0,0v-0.2l0,0c0-0.1,0-0.4,0-0.5v-0.4l0,0V147
		c0-0.1,0-0.4,0-0.5l0,0v-0.2c0-0.1,0-0.2,0-0.4l0,0v-0.1l0,0v-0.1l0.1-0.1l0,0l0,0l0,0c0,0,0,0,0.1,0h0.1l0,0
		c0.2,0,0.5,0.1,0.6,0.2C94.1,145.9,94.1,146.4,94.1,146.5L94.1,146.5z M93.9,154c0,0.4,0,0.5-0.2,0.6l0,0l0,0l0,0c0,0,0,0-0.1,0
		c-0.1,0.1-0.4,0-0.5,0l0,0l0,0l0,0l0,0c0,0,0-0.1-0.1-0.1l0,0l0,0l0,0c-0.1-0.1-0.1-0.6-0.1-0.8v-0.4l0,0v-0.1l0,0v-0.1l0.1-0.1
		l0,0l0,0l0,0h0.1l0,0c0.4,0,0.6,0.1,0.7,0.4v0.1l0,0v0.5l0,0v0.1H93.9z M92.8,151.8v-1.3c0-0.2,0-0.6,0-0.8l0,0v-0.1l0,0l0,0l0,0
		l0,0l0,0c0,0,0,0,0-0.1c0,0,0,0,0.1,0l0,0l0,0l0,0l0,0l0,0h0.1l0,0h0.1c0.4,0,0.5,0.1,0.6,0.4v0.2c0,0.2,0,0.5,0,0.7v1.2l0,0v0.1
		c0,0.1-0.2,0.2-0.4,0.4c-0.1,0-0.4,0-0.4,0l0,0l0,0l0,0l0,0l0,0l0,0C92.9,152,92.8,151.9,92.8,151.8L92.8,151.8L92.8,151.8
		L92.8,151.8z M95.3,133.5c0-0.1,0-0.2,0.1-0.4l0,0V133l0,0v-0.1l0,0c0-0.1,0-0.1,0-0.2l0,0v-0.1l0,0v-0.1l0,0v-0.1l0,0v-0.1l0,0
		v-0.1l0,0v-0.1l0,0v-0.1l0,0v-0.1l0,0v-0.1l0,0l0,0l0,0l0,0l0,0l0.1-0.1l0,0l0,0h0.1l0,0c0.4,0,0.5,0,0.6,0.2l0,0v0.1l0,0
		c0,0,0,0.2,0,0.4l0,0v0.1l0,0v0.1l0,0v0.1l0,0v0.1l0,0v0.1l0,0v0.1l0,0v0.1l0,0v0.1l0,0v0.1l0,0c0,0.1,0,0.1,0,0.2l0,0v0.1l0,0
		l-0.1,0.4l0,0v0.1l0,0v0.1l0,0v0.1l0,0l0,0l0,0l0,0c0,0-0.1,0-0.1,0.1l0,0l0,0l0,0c0,0-0.4,0.1-0.5,0c0,0-0.1,0-0.1-0.1l-0.1-0.1
		l0,0l0,0l0,0v-0.1l0,0V134l0,0C95.2,133.7,95.2,133.5,95.3,133.5L95.3,133.5z M96.4,130.1c0-0.1,0-0.1,0-0.2l0,0l0,0l0,0v-0.1l0,0
		v-0.1l0,0v-0.1l0,0v-0.1l0,0v-0.1l0,0l0,0l0,0v-0.1l0,0V129l0,0l0,0l0,0c0-0.1,0-0.1,0-0.2l0,0l0,0l0,0v-0.1l0,0l0,0l0,0v-0.1l0,0
		v-0.1l0,0l0,0l0,0v-0.1l0.1-0.1l0,0l0,0l0,0h0.1l0,0H97l0,0c0.1,0,0.1,0,0.2,0.1c0,0,0,0,0,0.1l0,0l0,0l0,0v0.1l0,0l0,0l0,0v0.4
		c-0.1,0.5-0.4,0.8-0.5,1.3v0.1l0,0v0.1l0,0l0,0l0,0v0.1l0,0v0.1l0,0v0.1l0,0v0.1l0,0v0.1l0,0l0,0l-0.1,0.1l0,0l0,0l0,0h-0.1l0,0
		c-0.2,0.1-0.4,0-0.5,0l-0.1-0.1l0,0l0,0l0,0v-0.1l0,0C96.3,130.3,96.3,130.2,96.4,130.1L96.4,130.1z M97.6,126.9L97.6,126.9
		L97.6,126.9c0-0.1,0-0.1,0-0.2l0,0v-0.1l0,0l0,0l0,0v-0.1l0,0v-0.1l0,0v-0.1l0,0V126l0,0v-0.1l0,0v-0.1l0,0l0,0l0,0v-0.1l0,0v-0.1
		l0,0v-0.1l0,0v-0.1l0,0l0,0l0,0v-0.1l0,0v-0.1l0,0l0,0l0,0V125l0,0v-0.1l0,0v-0.1l0,0v-0.1c0,0,0.1,0,0.1-0.1l0,0l0,0l0,0h0.1l0,0
		c0.1,0,0.4,0,0.5,0l0,0l0,0c0,0,0,0,0.1,0.1l0,0l0,0l0,0l0,0l0,0v0.1c0,0.1,0.1,0.1,0,0.2l0,0v0.1l0,0c0,0,0,0,0,0.1l0,0l0,0l0,0
		v0.1l0,0v0.1l0,0v0.1l0,0l0,0l0,0v0.1l0,0v0.1l0,0c0,0,0,0,0,0.1l0,0v0.1l0,0v0.1l0,0v0.1l0,0v0.1l0,0v0.1l0,0v0.1l0,0v0.1l0,0v0.1
		l0,0v0.1l0,0l0,0l0,0c0,0.1,0,0.1-0.1,0.2l0,0l-0.1,0.1c0,0-0.4,0.1-0.5,0.1C97.7,127.4,97.5,127.2,97.6,126.9L97.6,126.9z
		 M99.2,123.2L99.2,123.2L99.2,123.2L99.2,123.2L99.2,123.2v-0.1l0,0l0,0l0,0l0,0l0,0l0,0l0,0l0,0l0,0l0,0l0,0v-0.1l0,0l0,0l0,0l0,0
		l0,0l0,0l0,0l0,0l0,0l0,0l0,0l0,0l0,0c0,0,0,0,0-0.1l0,0v-0.1l0,0l0,0c0,0,0.1,0,0.1-0.1l0,0l0,0l0,0h0.1l0,0c0.4,0,0.4,0,0.6,0.1
		c0,0,0,0,0.1,0l0,0l0,0c0,0,0,0,0,0.1c0,0.1,0,0.2,0,0.4l0,0v0.1l0,0v0.1l0,0l0,0l0,0v0.1l0,0v0.1l0,0l0,0l0,0l0,0l0,0l0,0l0,0l0,0
		l0,0l0,0l0,0l0,0l0,0l0,0l0,0l0,0l0,0l0,0l0,0l0,0l0,0l0,0l0,0l0,0l0,0v0.1l0,0l0,0l0,0l0,0l0,0l0,0l0,0l0,0l0,0l0,0l0,0v0.1
		c0,0,0,0-0.1,0l0,0l0,0l0,0l0,0c-0.1,0-0.4,0.1-0.5,0.1c0,0-0.1,0-0.1-0.1l-0.1-0.1l0,0l0,0l0,0v-0.1l0,0v-0.1l0,0
		C99,123.6,99.2,123.3,99.2,123.2L99.2,123.2z M99.9,128.6L99.9,128.6L99.9,128.6L99.9,128.6c-0.1,0-0.2-0.1-0.2-0.1l0,0l0,0l0,0
		l0,0c-0.1,0-0.2-0.4-0.1-0.6c0.2-0.6,0.5-1.2,0.7-1.9l0,0l0.1-0.1l0,0l0,0h0.1l0,0h0.4c0.2,0.1,0.4,0.2,0.4,0.6v0.1l0,0v0.1l0,0
		l0,0l0,0v0.1l0,0v0.1l0,0l0,0l0,0v0.1l0,0l0,0l0,0v0.1l0,0l0,0l0,0v0.1l0,0l0,0l0,0v0.1l0,0l0,0l0,0v0.1l0,0l0,0l0,0v0.1l0,0v0.1
		l0,0l0,0l0,0v0.1l0,0v0.1l0,0l0,0l0,0v0.1l0,0l0,0c0,0,0,0-0.1,0l0,0C100.3,128.5,100.1,128.6,99.9,128.6L99.9,128.6z M98.6,131.9
		c-0.1,0-0.2-0.2-0.4-0.4v-0.4l0,0v-0.1l0,0c0-0.1,0-0.1,0-0.2l0,0v-0.1l0,0v-0.1l0,0c0-0.1,0-0.2,0.1-0.4l0,0v-0.1l0,0v-0.1l0,0
		c0-0.1,0-0.2,0.1-0.4l0,0v-0.1l0,0v-0.1l0,0v-0.1l0,0v-0.1l0,0c0-0.1,0.1-0.2,0.1-0.4l0.1-0.1c0,0,0-0.1,0.1-0.1l0,0H99l0,0
		c0.4,0,0.5,0.1,0.6,0.4l0,0c0,0,0.1,0.2,0,0.4l0,0v0.1l0,0v0.1l0,0v0.1l0,0v0.1l0,0v0.1l0,0v0.1l0,0v0.1l0,0v0.1l0,0v0.1l0,0v0.1
		l0,0v0.1l0,0v0.1l0,0c0,0.1,0,0.2-0.1,0.4l0,0v0.1l0,0v0.1l0,0v0.1l0,0v0.1l0,0c0,0.1,0,0.2-0.1,0.4c0,0-0.1,0-0.1,0.1l0,0
		C99.1,132.1,98.8,132.1,98.6,131.9L98.6,131.9z M97.6,135.4L97.6,135.4L97.6,135.4L97.6,135.4c-0.1-0.1-0.1-0.1-0.1-0.1v-0.1l0,0
		V135l0,0c0-0.1,0-0.2,0-0.4c0-0.1,0-0.1,0-0.2c0.1-0.2,0.1-0.5,0.2-0.7v-0.1l0,0v-0.1l0,0v-0.1l0,0v-0.1l0,0v-0.1l0,0V133l0,0v-0.1
		c0-0.1,0.1-0.1,0.1-0.2l0,0l0,0c0.1,0,0.1-0.1,0.2-0.1h0.1l0,0c0.2,0,0.5,0.1,0.6,0.2v0.1l0,0l0,0l0,0v0.4l0,0v0.1
		c-0.1,0.4-0.2,0.7-0.4,1.1v0.1c0,0.1-0.1,0.2-0.1,0.4c0,0.1,0,0.1,0,0.2l0,0l0,0l0,0c0,0,0,0.1-0.1,0.1l0,0l0,0c0,0,0,0-0.1,0
		C97.9,135.5,97.8,135.5,97.6,135.4L97.6,135.4C97.7,135.4,97.7,135.4,97.6,135.4L97.6,135.4z M101.1,123.8v-0.1l0,0v-0.1l0,0l0,0
		l0,0v-0.1l0,0v-0.1l0,0l0,0l0,0l0,0l0,0l0,0l0,0l0,0l0,0l0,0l0,0l0,0l0,0l0,0l0,0l0,0l0,0l0,0l0,0l0,0l0,0c0,0,0-0.1,0.1-0.1h0.1
		l0,0c0.1,0,0.1,0,0.2,0c0.2,0,0.5,0.1,0.5,0.2c0.1,0.1,0.1,0.4,0,0.5l0,0v0.1l0,0c0,0,0,0,0,0.1l0,0v0.1l0,0l0,0l0,0l0,0l0,0l0,0
		l0,0l0,0l0,0l0,0l0,0l0,0l0,0l0,0l0,0l0,0l0,0c0,0,0,0,0,0.1l0,0v0.1l0,0l0,0l0,0l0,0l0,0l0,0l0,0v0.1l0,0v0.1l0,0l0,0l0,0v0.1l0,0
		v0.1l0,0l0,0l0,0l0,0l0,0l0,0l0,0v0.1l0,0l0,0l-0.1,0.1l0,0l0,0c0,0-0.2,0.1-0.4,0.1l0,0h-0.1l0,0l0,0c0,0,0,0,0-0.1c0,0,0,0-0.1,0
		l0,0c0,0,0,0-0.1,0l0,0l0,0v-0.1l0,0v-0.2C100.9,124.4,101,124,101.1,123.8L101.1,123.8L101.1,123.8z M99.7,120.3L99.7,120.3
		c-3.1-2.8-5.9-6-8.3-9.5c-0.1-0.1-0.1-0.1-0.2-0.2c-2.3-3.2-4-6.2-5.1-9c-1.5-4.3-1.8-8.2-0.6-11.6l-0.2-0.1
		c-0.1,0.1-0.1,0.2-0.2,0.2c-0.5,0.8-0.9,1.8-1.2,2.5c-1.1,2.6-1.3,5.2-0.9,7.9c0.1,0.5,0.2,0.9,0.2,1.5c0.8,3,2.4,5.8,4.7,8.7
		c2.7,3.3,6.5,6.8,11.5,10.1l-4.5,10.4c-0.2,0.6-0.4,1.1-0.6,1.7c-2.5,8.2-3.3,15.7-2.5,22.6l0.9,1.2c0.8,0.8,1.8,1.3,3,1.2
		c1.8-0.1,3.1-0.7,4-1.8c-0.7-6.8,0.1-14.5,2.5-23.2c0.6-2.3,1.3-4.7,2.1-7.1c0.1-0.2,0.2-0.6,0.2-0.8
		C104.9,123.1,103.4,121.5,99.7,120.3"/>
	<path class="st1" d="M174.4,197.3l-4.6-3.1c-0.2-0.7-0.5-1.4-0.6-2.1c-0.7-1.8-1.5-3.1-2.5-3.9l-0.9-0.9c-1.3-1.4-2.5-1.8-3.7-1.4
		c-1.4,0.6-2.1,1.7-2.1,3.3v0.5c-0.5,0.5-0.7,0.8-0.9,1.1l-0.7,1.3c0.8-0.1,1.8,0,2,0.1c1.8,0.6,2.5,2.7,2.5,6.2v0.7
		c-0.2-0.6-0.6-1.3-1.1-1.8c-0.1-1.3-0.6-2.3-1.5-2.7c-1.2-0.6-2.8-0.2-4.7,1.5c-0.5,0.2-0.9,0.6-1.4,1.1c-1.1,0.9-2.1,1.8-2.8,2.5
		c-1.8,0.1-3.3,0.1-5,0.2l-0.8-1.7c3-1.3,4.5-3.3,4.5-6v-1.2c-0.1-1.3,0.2-2.1,0.8-2.8c0.7-0.8,2-1.3,3.9-1.3h1.3l-0.5-1.2
		c-0.5-0.9-0.9-1.8-1.4-2.4c-0.1-1.2-0.6-2.1-1.3-2.6c-1.3-0.9-3-0.5-4.9,1.3c-0.6,0.2-1.1,0.7-1.7,1.2c-2.7,2.5-4.9,3.9-6.4,4.3
		c-0.2,0.1-0.5,0.1-0.7,0.2v-6.9c31.2-15.8,52.6-48.1,52.6-85.4c0-52.8-42.9-95.6-95.6-95.6c-10.6,0-20.8,1.8-30.2,5
		c-5.1,1.7-10.1,3.8-14.8,6.4c-15.5,8.2-28.3,20.3-37.2,35C9,53.9,5.4,62.3,3.2,71.2c-2,7.7-3.1,15.8-3.1,24.1
		c0,7.6,0.9,14.9,2.6,21.9c1.2,5.5,2.8,10.7,5.1,15.7c1.8,4,3.8,8.1,6.2,11.9c6.6,11,15.5,20.5,25.9,28v17.5
		c-0.5-0.6-0.5-0.6-0.9-1.1v-0.4c0-1.8-0.7-2.8-2.1-3.3c-1.1-0.4-2.3-0.1-3.6,1.3l-0.2,0.4c-1.5,0.8-2.4,2.3-3.3,5
		c-0.2,0.6-0.5,1.3-0.6,1.9l-4.6,3c-4-4.9-8.3-5.8-12.6-2.8l-0.6,0.4l2.6,6l0.9-0.7c0.5-0.2,1.1-0.5,1.9-0.6l-1.8,2.4l1.8-0.2
		c0.5-0.1,0.9,0.1,1.8,0.6l-0.6,1.5l0.2,0.4c0.7,1.3,1.5,2.4,2.5,3.2c0.9,0.9,2.1,1.5,3.3,1.9c-2.4,0.2-4.7,0.5-7,0.7
		c-0.6,2.3-0.6,4.2-0.4,5.7c12.6-1.2,24.5-2.3,35.8-3.3c0.1,0.2,0.2,0.6,0.6,0.9c0.8,1.1,1.9,2,3.2,2.6l-2.5,4.9
		c-0.2,0.5-0.2,0.8,0.4,1.1c0.5,0.4,0.8,0.2,1.1-0.4l2.6-5c0.5,0.1,0.8,0.2,1.3,0.2c0.5,0.1,0.9,0.2,1.5,0.2l-0.9,2.3
		c-0.2,0.5,0,0.8,0.6,1.1c0.6,0.2,0.9,0.2,0.9-0.5l1.2-3c4-0.2,7.8-2.4,11.3-6.4c3.9-0.4,7.8-0.7,11.5-0.9v2.5
		c0,0.4,0.2,0.6,0.6,0.8l4.9,1.8c0.4,0,1.7-0.4,3.7-1.1c0.4-0.1,0.6-0.4,0.6-0.8v-3.9l7.6,2h0.5l15.7-3.6l2.1-0.6
		c0.5-0.1,0.9-0.1,1.5-0.1v1.4c0,0.5,0.2,0.7,0.6,0.8l3.7,0.9c0.2,0,1.4-0.4,3.3-1.1c0.4-0.2,0.6-0.6,0.6-0.8v-1.8
		c1.4-0.1,3-0.2,4.3-0.2l-0.1,0.1l0.2,0.4c0.1,0.1,0.5,0.4,1.1,0.9c0.7,0.6,1.9,1.8,3.6,3.3c2.5,1.8,5,2.7,7.5,2.8l1.1,3
		c0.2,0.5,0.6,0.6,1.1,0.6c0.6-0.2,0.7-0.6,0.5-1.1l-0.9-2.4c0.6-0.1,1.1-0.2,1.7-0.2c0.5-0.1,0.8-0.2,1.2-0.2l2.6,5.1
		c0.2,0.5,0.7,0.6,1.2,0.4c0.5-0.2,0.6-0.6,0.4-1.1l-2.5-5c1.3-0.6,2.3-1.4,3.1-2.5c0.6-0.8,1.1-1.8,1.3-2.5
		c0.2-0.7,0.2-1.4,0.2-2.1v-0.8c2.1-0.1,4-0.2,6-0.2c0.6,1.2,1.3,2.3,2.4,3.2c0.6,0.5,1.3,0.9,2.1,1.3l-1.8,4.5
		c-0.2,0.5,0,0.8,0.5,1.1c0.6,0.2,0.9,0,1.1-0.5l1.9-4.5c0.6,0.2,1.3,0.4,1.9,0.5l-0.9,3.3c-0.2,0.6-0.1,0.9,0.6,0.9
		c0.6,0.2,0.9,0.1,0.9-0.6l1.1-3.7c2.1-0.1,3.9-0.9,5.5-2.5c0.8-0.8,1.5-1.8,2.1-3l0.2-0.4l-0.7-1.5c0.6-0.4,1.3-0.6,1.8-0.6
		l1.9,0.2l-1.8-2.3c0.9,0.2,1.7,0.4,1.9,0.6l0.8,0.6l2.6-6l-0.6-0.4C182.6,191.2,178.4,192.2,174.4,197.3z M140.1,189.1
		c1.9-0.5,4.3-2,7.1-4.6c1.2-1.1,2.3-1.5,3.3-1.3c0.9,0.2,1.9,1.1,2.7,2.5c-2.1,0.2-3.3,0.7-4,1.4c-0.8,0.9-1.3,2.1-1.3,3.4l0.1,0.9
		v0.8c-0.4,2.8-2.4,4.5-6,5.2c-0.9,0.2-2.1,0.2-3.1,0.2v-8.3C139.3,189.2,139.7,189.1,140.1,189.1z M144.1,199.9
		c-0.8,0.1-1.5,0.1-2.4,0.1c-0.4-0.2-0.7-0.6-0.9-0.8c0.5,0,0.9-0.1,1.4-0.2c0.5-0.1,0.8-0.2,1.3-0.2L144.1,199.9z M2.6,95.3
		c0-51.5,41.9-93.2,93.2-93.2S189,44,189,95.3c0,37-21.7,69.1-53,84.2h-0.2l-0.1-2.1l-0.6-17.5c-0.1-4.3,0.6-13.2,1.9-26.7v-0.6
		l1.1-11.1c0.2-3.7-0.1-7.1-1.2-10.3c-0.2-0.6-0.6-1.3-0.8-1.9c-1.2-2-2.1-3.3-2.5-4c4.7-2.1,7.9-6,9.7-11.7l1.1-4.5l0.6-2.8
		l2.6-7.1c1.4-4.7-1.4-9.8-8.5-15.3l-8.3-6.3c-7.2-4.7-12.1-7.8-14.5-9.4l5.9-3.4l0.4-0.2l-2.1-0.6c-3.4-1.1-7.2-0.8-11.4,0.8
		c-0.2,0.1-0.5,0.1-0.6,0.2c0.1-0.1,0.2-0.1,0.2-0.2c2.1-2.5,3.8-5.1,4.9-7.9c0.6-1.8,0.9-3,0.9-3.8l0.1-2.1l-1.4,1.4
		c-4.2,3.9-8.9,6.2-14.1,6.8c-2.8,0.2-5.2,0.8-7.6,1.5l0.4-5c-0.1-2.6-1.8-4.5-5.3-5.9c-2.3-5.2-3.9-8.5-4.9-9.7l-2.8-1.7
		c-1.9-0.2-3.7,0.6-5.5,2.4c-2.7,2.5-5.3,4.2-7.9,4.9c-1.8,0.5-3.2,1.4-4,3c-0.6,1.5-0.5,3.1,0.2,4.6l2.7,5.6
		c0.2,0.4,0.6,0.9,1.3,1.7c-0.6,1.8-0.9,3.2-0.7,4.4c0.1,0.7,0.5,1.4,0.9,1.9l2.7,4.3c-0.9,0.2-1.5,0.7-2,1.3
		c-0.5,0.6-0.6,1.3-0.6,2.1c0,0.6,0.1,1.2,0.2,1.9c-0.6,0.9-0.9,1.8-1.1,2.5c-0.1,0.1-0.2,0.2-0.4,0.2c-0.9,1.3-3,2.8-5.7,4.3
		c-3.4,1.8-5.6,3.7-6.4,5.5c-1.2,2.5-1.8,5.6-1.8,9.5l0.4,1.3l-1.4,4.5c-0.6,1.7-1.2,3.3-1.5,4.9c-1.3,5.2-1.1,9.6,0.6,13.4
		c1.9,4,4.3,6.5,7.2,7.4c2.8,0.6,5.7-0.1,8.7-2.4c1.3-0.9,3.1-1.7,5.1-1.9c0.6-0.1,1.1-0.1,1.5-0.1c-0.2,0.8-0.4,1.9-0.4,3.2
		c0,0.8,0.1,1.7,0.2,2.6c0.1,2.3,0.6,5,1.2,8.2c-1.7,3.7-2.7,8.3-3.3,14c-0.4,3.2-0.6,6.6-0.6,10.4c0,2.8,0.1,5.5,0.2,7.7l-28.1-0.4
		c-0.2,0-0.5,0.1-0.6,0.2c-0.2,0.1-0.2,0.2-0.2,0.6V170C17.3,152.8,2.6,125.8,2.6,95.3z M129.1,149.4c-1.1-5-0.9-10.4,0.5-16.5
		c0.1-0.2,0.1-0.6,0.2-0.9l2.8-8.2l-1.7,6.8c-0.1,0.8-0.2,1.7-0.2,2.5c-0.5,5.1-0.2,10.3,0.7,15.9c1.9,10.2,1.9,19,0,26.3
		C131.6,166.3,130.9,157.8,129.1,149.4z M125.7,110.4c-0.1,0.2-0.2,0.4-0.2,0.5c-1.3,2-4,3-7.7,3l0.8-2.3c0.6-0.2,1.1-0.5,1.5-0.7
		c0.4-0.2,0.6-0.6,0.7-0.8c0.2-0.5,0.2-0.8,0.2-1.3c0-0.6-0.2-1.3-0.6-2.1c-0.2-0.4-0.6-0.5-0.9-0.4c-0.6,0.2-0.9,0.4-1.4,0.5
		c-1.5,0.2-2.8,0.1-3.7-0.6l3.7-2.8c1.8-0.2,3.4-0.8,5.1-1.9c0.7-0.5,1.4-1.1,2.1-1.8c0.1,0.1,0.2,0.1,0.4,0.2
		c1.4,0.9,2.1,2.1,2.1,3.6v1.2C127.7,106.7,127,108.6,125.7,110.4z M127.5,159v17.4l-6.3,0.8l-2.1,0.2l0.1-0.2l5.1-18L127.5,159z
		 M126.9,98.5l-0.7-0.7l0.8-2.5c1.9,0.5,3.3,1.5,4,3.4c0.2,0.6,0.5,1.2,0.5,1.8c0,1.2-0.5,2.3-1.3,3.4l-0.6-1.3
		C129.4,100.9,128.5,99.5,126.9,98.5z M132.4,103.5c0.9-1.8,0.9-3.7,0.1-5.6c-0.8-1.8-2-3-3.7-3.8c-0.8-0.5-1.5-0.6-2.1-0.7
		l-0.2-3.6v-1.2c0.2-4.4,1.2-7.7,2.8-10.2l3-2.5c0.4-0.1,0.6-0.4,0.6-0.8v-0.2c-0.2-0.5-0.6-0.6-0.9-0.6c-0.6,0.2-1.3,0.6-2.1,1.2
		c-1.3,1.2-2.5,2.8-3.3,4.9c-2.6-0.8-4.4-3.6-5.1-7.9c-0.9-5.3-2.4-7.9-4.3-7.9l1.1,1.1c0.8,1.2,1.3,3,1.4,5.2
		c0.5,6.3,2.5,10.1,6.2,11.4c-0.6,1.9-0.8,4-0.9,6.4c-0.1,1.1-0.1,2.1,0,3.3c0.1,0.8,0.1,1.7,0.2,2.5l0.1,0.2l-0.9,3v0.2
		c0,0.1,0,0.1,0,0.2c-1.8,2-4,3.2-7,3.7l-4.9,3.7c-0.5,0.2-0.5,0.6-0.2,1.1c0,0.1,0.6,0.5,1.5,1.3c0.9,0.5,2.3,0.6,3.7,0.6
		c-0.2,0.8-0.5,1.7-0.6,2.5c-0.2,0.9-0.6,1.8-0.8,2.6l-0.4,0.9c-1.4,4-3.1,7.1-4.9,9c-0.2,0.4-0.6,0.6-0.8,0.9
		c-6.8-4.5-12.2-9-16-13.4c-2.6-2.8-4.5-5.8-5.7-8.7c-1.3-3-2-5.9-1.9-8.7v-0.1c0.2,0.2,0.6,0.2,1.1,0.2c0.1,0,0.1,0,0.2,0
		c0.9,3,3.2,5.1,6.8,6.3c2.6,0.8,4.9,2.3,6.5,4.3c1.5,1.8,2.8,4,3.7,6.6c0.9,2.5,1.5,5.3,1.8,8.7c0.2-3.2,0.1-6-0.6-8.7
		c-0.6-2.5-1.4-4.5-2.7-6.4c-1.9-3-4.6-5.1-8.2-6.6c-3-1.3-4.7-3.1-5.3-5.3c0.2-0.2,0.4-0.6,0.6-0.9c0.6-1.1,0.7-2,0.6-2.8
		c-0.1-0.2-0.1-0.4-0.2-0.5c-0.1-0.1-0.1-0.2-0.1-0.2c0.8-0.8,1.1-1.8,0.8-2.5c-0.1-0.4-0.2-0.7-0.4-0.9l0.2-0.8
		c1.8-1.3,3.7-2.8,6-4.4c6.6-4.3,11.9-6.6,15.7-7.1c0.1,0,0.2,0,0.4-0.1c0.1,0,0.1,0,0.2-0.1c0.9,1.2,2.3,2.1,3.8,2.7
		c-3.3-3.3-5.7-7.5-7.1-12.3l0.6,4.9c0.4,1.2,0.9,2.4,1.5,3.3c-4,0.6-9.4,3-16,7.2c-2.1,1.3-3.8,2.5-5.3,3.7
		c-0.5-1.2-1.4-2.1-3.2-2.7c-0.1-3-1.2-5.3-3.2-7.1l-3.7-2.1l-0.9-0.2l-0.4,4.9c-0.5,2-0.2,4.2,0.6,6.6l0.1,0.2
		c-3.3,2.1-5.6,4-6.6,5.7c-0.2-0.2-0.6-0.6-0.9-0.8c-2.1-1.9-4.4-1.8-6.5,0.1c0.4-1.8,0.2-3.8-0.4-6l0.9-4.9
		c-0.8,0.6-1.4,1.4-1.8,2.4c-0.7-1.8-1.4-3.2-2.1-4.3c-0.4-0.5-0.7-0.6-1.2-0.2c-0.6,0.2-0.6,0.6-0.2,1.1c3.7,6,4.4,10.8,2.1,14.1
		c-0.5,0.2-0.9,0.4-1.4,0.6c-0.8,0.2-1.8,0.4-2.7,0.6c-4.2,0.7-6.4,2.5-6.4,5.2c0,0.6,0.2,0.8,0.8,0.8c0.6,0.1,0.8-0.1,0.8-0.7
		c0.1-1.9,1.8-3.2,5.1-3.7c2.8-0.5,5-1.2,6.2-2.1c0.2-0.2,0.4-0.4,0.5-0.6l0.6-0.6c1.7-1.5,3.2-1.7,4.6-0.4c0.4,0.2,0.7,0.6,1.1,1.1
		l-0.4,0.4l-0.8,0.7c-0.2,0.2-0.6,0.4-0.7,0.6l-0.2,0.2c-1.4,2.3-1.3,4.9,0.5,7.9c-0.5-1.5-0.6-2.8-0.4-4c0.2,0.6,0.5,1.1,0.9,1.5
		c1.3,1.8,2.7,2.4,4,2.1c0.6-0.1,1.1-0.6,1.7-1.2c0.4,0.9,0.6,1.8,0.7,2.6c-2.1,2.4-4,3.7-5.6,4h-0.1c-0.8-0.1-1.8,0-2.8,0.2
		c-2.3,0.4-4.3,1.1-5.8,2.3c-2.7,1.9-5.2,2.5-7.4,2c-2.4-0.6-4.5-2.8-6.2-6.4c-1.7-3.6-1.8-7.7-0.4-12.6c0.4-1.3,0.8-2.7,1.3-4.2
		l1.7-5v-1.5c0-3.7,0.6-6.5,1.5-8.7c0.7-1.5,2.6-3.1,5.6-4.7c2.4-1.2,4.2-2.4,5.3-3.6c0.2,0.7,0.6,1.4,1.1,2.1
		c3,3.8,8.8,5.7,17.7,5.7c9,0,16.6-4,22.9-12c2.4-3,5-5.6,7.9-7.9c0.9,0.6,2.5,1.4,4.6,2.6c4.3,2.6,7.6,4.9,10.1,7l8.3,6.3
		c5.5,4,8.2,8.1,8.2,12l-0.2,1.4l-2.6,7.1l-0.7,3.3l-0.9,4C140,98,136.9,101.6,132.4,103.5z M99.8,156.3c-0.9,1.1-2.4,1.8-4,1.8
		c-1.1,0.1-2.1-0.4-3-1.2l-0.9-1.2c-0.8-7,0-14.5,2.5-22.6c0.2-0.6,0.4-1.1,0.6-1.7l4.5-10.4c-5-3.3-8.8-6.8-11.5-10.1
		c-2.4-2.8-3.9-5.7-4.7-8.7c-0.1-0.6-0.2-1.1-0.2-1.5c-0.5-2.6-0.2-5.2,0.9-7.9c0.2-0.8,0.7-1.8,1.2-2.5c0.1-0.1,0.1-0.2,0.2-0.2
		l0.2,0.1c-1.2,3.4-0.9,7.4,0.6,11.6c1.1,2.8,2.8,5.8,5.1,9c0.1,0.1,0.1,0.1,0.2,0.2c2.5,3.4,5.2,6.6,8.3,9.6v-0.1
		c3.7,1.2,5.2,2.7,4.9,4.6c-0.1,0.2-0.2,0.6-0.2,0.8c-0.8,2.5-1.5,4.9-2.1,7.1C99.9,141.7,99.1,149.4,99.8,156.3z M81.2,100.1
		c-0.5-0.2-0.9-0.5-1.3-0.6c-0.1-1.1-0.5-2.4-1.1-3.7c-0.1-0.2-0.2-0.5-0.2-0.7c0.2-0.5,0.4-0.9,0.6-1.4l2.6,0.2
		C81.2,95.9,81,97.9,81.2,100.1z M81.7,92.2l-2.8-0.4h-3.7c-0.2,0-0.2,0.2-0.4,0.6c0,0.4,0.4,0.6,1.2,0.8c0,0,0,0,0.1,0l1.3,0.2
		c-0.2,0.6-0.5,1.2-0.7,1.7c-0.4,0.6-0.8,0.9-1.4,1.1c-0.7,0.2-1.5-0.4-2.5-1.5s-1.3-2.3-0.8-3.3c0.2-0.8,0.9-1.3,1.8-1.5
		c0.1,0,0.1,0,0.2,0c0.2-0.1,0.4-0.4,0.5-0.7c0-0.1,0-0.2,0.1-0.4c0.1-0.2,0.2-0.5,0.2-0.6c0.7-1.5,2.7-3.3,5.9-5.5
		c0.5-0.4,0.9-0.7,1.5-0.9c0.9-0.6,2.1-1.3,3.3-1.9c0.1,0.1,0.2,0.1,0.4,0.2c0.6,0.2,1.3,0.6,1.8,0.8c0.9,0.6,1.5,0.9,1.7,1.4
		c0.2,0.2,0.1,0.5-0.2,0.7c-0.7-0.5-1.7-0.9-2.7-1.3h-0.1c-0.5-0.1-0.8,0.1-1.1,0.6c0,0.1,0,0.1,0,0.2c-0.1,0.5,0.1,0.7,0.6,0.9
		c0.8,0.2,1.5,0.6,2.1,0.9c0.9,0.5,1.5,1.1,1.7,1.8c0.1,0.2,0,0.6-0.2,0.9c-0.6-0.5-1.2-0.8-1.8-1.2l-2-0.9
		c-0.5-0.1-0.8,0.1-1.1,0.6c-0.1,0.6,0.1,0.9,0.6,1.1c0.2,0.1,0.4,0.1,0.6,0.2c1.5,0.6,2.5,1.3,3.2,2.3c0.1,0.1,0.1,0.2,0.2,0.4
		c0.2,0.4,0.1,0.9-0.2,1.8c-0.5,0.7-0.8,1.2-1.3,1.3c-0.1-0.1-0.1-0.1-0.2-0.2v-0.4c0-0.1,0-0.1,0-0.2c0.5-0.7,0.5-1.3,0.1-2
		c-0.1-0.1-0.1-0.2-0.2-0.2c0,0,0,0-0.1-0.1l-0.2-0.2c-0.6-0.5-1.3-0.6-2.3-0.6c-0.1,0-0.1,0-0.2,0.1c-0.2,0-0.5,0.2-0.6,0.6l0,0
		c-0.1,0-0.1,0-0.1,0.1V90c-0.6,0.8-0.9,1.8-1.3,2.6C82.3,92,82,92.1,81.7,92.2z M81.2,76.1l0.4-4.7c2.8,1.3,4.4,3.7,4.6,6.9
		c-0.2-0.1-0.5-0.1-0.6-0.2c-1.3,0.6-2.5,1.3-3.7,2C81.4,78.8,81.2,77.5,81.2,76.1z M85.2,37.4c0.2,0.1,0.6,0.1,0.9,0
		c0.2-0.2,0.4-0.6,0.4-0.8c0-0.6,0.1-1.1,0.4-1.7c0.5-1.1,1.3-1.8,2.4-2c0.7,0.9,1.1,1.8,1.1,2.5l-0.6,9l-0.1,0.9l0.1,2.1
		c0,1.5-0.2,2.8-0.7,3.7l-0.6,1.1L87,55.3c-0.2,0.8-0.8,1.4-1.8,2.1c-1.2,0.6-2.4,0.8-3.6,0.5l-4.6-1.1c-2.3-0.6-4-2.1-5.3-4.9
		l-4-6.4c-0.2-0.2-0.6-0.6-0.6-1.1c-0.1-0.4-0.2-0.7-0.2-1.1c0-0.7,0.2-1.5,0.6-2.4c1.2,0.6,2.4,0.9,3.3,0.9c3,0.1,5.6-1.4,7.9-4.4
		c0.6-0.9,1.4-1.9,2.4-2.8L85.2,37.4z M82.2,33.5c2.6-1.8,3.9-2.5,4-2.5h0.1l1.3,0.6c-1.3,0.7-2.1,1.9-2.5,3.7L82.2,33.5z
		 M45.9,175.9v25c0,0.5-0.2,0.6-0.6,0.6c-0.5,0-0.6-0.2-0.6-0.6v-25c0-0.4,0.2-0.6,0.6-0.6C45.8,175.5,45.9,175.6,45.9,175.9z
		 M29.3,206.9c-0.1,0-0.2,0-0.4,0.1c-1.9,0.6-3.7,0.6-5.2-0.1c-1.4-0.6-2.8-1.9-4-3.7l0.9-1.8l-0.4-0.5c-0.5-0.6-1.1-0.9-2-1.2
		l1.8-2.4l-1.5-0.1c-1.3-0.1-2.6,0.1-3.9,0.6l-1.2-2.6c2.3-1.2,4.6-1.1,7.1,0.5c1.2,0.8,2.3,1.8,3.2,2.8l0.5,0.7l6.4-4.5
		c0.2-0.9,0.6-1.9,0.9-2.7c0.9-2.1,1.9-3.3,3.1-3.6c0.9-0.1,2.1,0.6,3.6,2.1c-0.8,0.2-1.4,0.7-1.9,1.4l0,0c-0.9,1.2-1.5,2.8-1.5,5.2
		l0.1,1.7C34.6,202.7,32.8,205.5,29.3,206.9L29.3,206.9z M42.7,206.9c-4,0.4-7.9,0.7-12,1.2c0.7-0.4,1.4-0.7,2-1.2
		c2.5-1.9,3.7-4.9,3.6-8.8c-0.1-3.1,0.6-5.1,2-6c0.2-0.2,0.6-0.4,1.1-0.5l0.6-0.1v9.8c0,0.4,0.2,0.6,0.6,0.8l4.6,1.7h0.4l-0.2,0.2
		h1.3c1.8,0,3.2,0.5,4,1.3c0.2,0.2,0.4,0.4,0.5,0.6C48.1,206.3,45.4,206.5,42.7,206.9z M70.9,210.3c-3.7,3.7-7.6,5.2-11.9,4.4
		c-2.5-0.5-4.2-1.4-5.2-2.8c-0.6-0.9-0.9-2-0.9-3.3v-1.8c-0.1-0.4-0.2-0.6-0.2-0.9c-0.2-0.6-0.6-1.2-0.9-1.7
		c-0.5-0.6-1.8-0.9-3.7-1.3c-0.1-0.1-0.2-0.1-0.4-0.1c0.6-0.9,1.2-1.7,1.8-2c0.2-0.2,0.6-0.2,0.9-0.4c0.9-0.2,2.1,0.2,3.3,1.3
		c1.8,1.5,3.3,2.8,4.7,3.7c0.8,0.5,1.7,0.8,2.4,0.9c2.3,0.6,4.6-0.1,7.1-1.8c0.2-0.2,0.6-0.5,0.9-0.7l1.8,1.3
		c-0.5,0.6-0.9,1.1-1.8,1.3l0.1,0.4l0.2,1.2c1.1-0.2,2.1-0.5,2.8-0.8l0.5,1.3C72.1,209.3,71.5,209.7,70.9,210.3z M72.2,204.3
		l-3.3-2.4l-0.6,0.4c-2.5,2.3-4.9,3.1-7,2.6c-1.5-0.4-3.7-1.8-6.4-4.4c-0.5-0.5-0.9-0.8-1.4-1.1c-1.5-1.3-2.8-1.8-3.9-1.8v-2.4
		l29.9,8.3C76.9,203.8,74.6,204,72.2,204.3z M86.8,188.2v2.4v11.9l-16.7-4.5l2.5-5.9l1.5-3.6l0.9-2.3l3.7-9l5.5-13.4l2.7,0.6v23.8
		H86.8z M91.1,161.6v26.8v2.4v20.4c0,0.4-0.2,0.6-0.6,0.6s-0.6-0.2-0.6-0.6v-20.4v-2.4v-26.8L48.1,154c-0.5-0.1-0.6-0.4-0.5-0.6
		c0-0.5,0.2-0.6,0.6-0.5l33.2,6l1.9-0.9c2.1-0.9,3.8-1.4,5.1-1.4c1.9,0,3.9,1.2,6.2,3.6l23.4-2.3c0.4,0,0.6,0.2,0.6,0.6
		c0,0.2-0.2,0.6-0.5,0.6L91.1,161.6z M103,188.3v2.4v16.7c0,0.4-0.2,0.6-0.6,0.6s-0.6-0.2-0.6-0.6v-0.6V192v-1.2v-2.4v-0.9
		c0-0.4,0.2-0.6,0.6-0.6s0.6,0.2,0.6,0.6V188.3z M102.2,184.1l-4.3-1.1l31.4-4.5c0,0.1,1.4,0.5,4.3,1.2L102.2,184.1z M136.1,200.1
		l-11.9,2.5l4.9-10.7l0,0l3.9-8.7l0.2-0.6l1.8-0.4l0.8-0.1h0.1v17.9H136.1z M157,200.8c-0.8,0.9-1.2,2-1.3,3.2v1.2
		c0,0.6-0.1,1.1-0.2,1.7c-0.6,2.3-2.5,3.7-5.9,4.4c-4.3,0.8-8.2-0.6-11.9-4.4c-0.6-0.6-0.9-1.1-1.4-1.7c-0.1-0.1-0.1-0.1-0.1-0.1
		l0.8-1.9l2.3,1.3l0.6-1.5c-0.8-0.4-1.4-0.9-1.8-1.5l1.7-0.9c2.8,2.3,5.5,3.1,8.1,2.5c1.5-0.5,3.4-1.5,5.7-3.4
		c0.5-0.4,0.8-0.7,1.3-1.2c1.2-0.9,2.3-1.4,3.3-1.3c0.9,0.2,1.8,0.9,2.5,2.1c0.1,0.1,0.1,0.2,0.2,0.2
		C158.9,199.8,157.6,200.3,157,200.8z M184.3,198.1c-0.9-0.6-2.4-0.8-3.9-0.7l-1.5,0.1l1.8,2.4c-0.8,0.2-1.5,0.6-2,1.2l-0.2,0.5
		l0.8,1.9c-0.9,1.5-2.1,2.7-3.4,3.4c-1.8,0.8-3.7,0.9-5.8,0.2c-0.2-0.1-0.6-0.2-0.8-0.2c-3.2-1.4-4.9-4-4.9-7.8v-1.7
		c0-2.5-0.6-4.2-1.7-5.3c-0.5-0.5-1.1-0.9-1.8-1.2c1.3-1.5,2.5-2.3,3.6-2.1c1.2,0.2,2.1,1.3,3,3.3c0.4,0.8,0.7,1.8,0.9,2.8l0.1,0.2
		l6.3,4l0.6-0.6c0.8-1.2,1.9-2.1,3.2-3c2.5-1.5,4.7-1.7,7-0.5L184.3,198.1z"/>
	<path class="st2" d="M44.7,175.9v25c0,0.5,0.2,0.6,0.6,0.6s0.6-0.2,0.6-0.6v-25c0-0.4-0.2-0.6-0.6-0.6
		C44.9,175.5,44.7,175.6,44.7,175.9"/>
	<polygon class="st2" points="136.1,200.1 124.3,202.7 129.2,192.1 129.2,192.1 133.1,183.4 133.4,182.8 135.2,182.5 136,182.3 
		136.1,182.3 	"/>
	<path class="st2" d="M103,188.3v2.4v16.7c0,0.4-0.2,0.6-0.6,0.6s-0.6-0.2-0.6-0.6v-0.6V192v-1.2v-2.4v-0.9c0-0.4,0.2-0.6,0.6-0.6
		s0.6,0.2,0.6,0.6V188.3z"/>
</g>
</svg>
